<?xml version="1.0" encoding="UTF-8"?>
<svg width="320px" height="180px" viewBox="0 0 320 180" version="1.1" xmlns="http://www.w3.org/2000/svg">
    <title>accordion</title>
    <g id="accordion" stroke="none" stroke-width="1" fill="none" fill-rule="evenodd">
        <rect id="divider-top" fill="#E0E0E0" x="76" y="52" width="168" height="1"></rect>
        <rect id="title-1" fill="#525252" x="76" y="58" width="100" height="8"></rect>
        <g id="chevron-1" transform="translate(224, 54) scale(0.5) rotate(90 16 16)" fill="#161616">
            <path d="M22 16L12 26 10.6 24.6 19.2 16 10.6 7.4 12 6z"></path>
        </g>
        <rect id="body-1a" fill="#E0E0E0" x="76" y="76" width="140" height="6"></rect>
        <rect id="body-1b" fill="#E0E0E0" x="76" y="88" width="100" height="6"></rect>
        <rect id="divider-2" fill="#E0E0E0" x="76" y="104" width="168" height="1"></rect>
        <rect id="title-2" fill="#525252" x="76" y="110" width="90" height="8"></rect>
        <g id="chevron-2" transform="translate(224, 106) scale(0.5)" fill="#161616">
            <path d="M22 16L12 26 10.6 24.6 19.2 16 10.6 7.4 12 6z"></path>
        </g>
        <rect id="divider-3" fill="#E0E0E0" x="76" y="128" width="168" height="1"></rect>
        <rect id="title-3" fill="#525252" x="76" y="134" width="80" height="8"></rect>
        <g id="chevron-3" transform="translate(224, 130) scale(0.5)" fill="#161616">
            <path d="M22 16L12 26 10.6 24.6 19.2 16 10.6 7.4 12 6z"></path>
        </g>
        <rect id="divider-bottom" fill="#E0E0E0" x="76" y="152" width="168" height="1"></rect>
    </g>
</svg>
