<svg width="640" height="360" viewBox="0 0 640 360" fill="none" xmlns="http://www.w3.org/2000/svg">
<title>button</title>
<g id="button">
<g id="primary" transform="translate(-104, 0)">
<rect id="Rectangle" x="320" y="148" width="208" height="64" fill="var(--cds-interactive-01, #0f62fe)"/>
<g id="Submit">
<path d="M350.936 190.288C354.536 190.288 356.696 188.32 356.696 185.248C356.696 182.752 355.28 181.312 352.016 180.568L350.648 180.256C348.536 179.776 347.504 179.056 347.504 177.472C347.504 175.672 348.824 174.736 350.96 174.736C352.904 174.736 354.176 175.528 355.088 176.8L356.6 175.696C355.352 173.92 353.576 172.96 351.056 172.96C347.768 172.96 345.512 174.568 345.512 177.544C345.512 180.112 347.192 181.456 350.24 182.152L351.608 182.464C353.816 182.968 354.704 183.76 354.704 185.344C354.704 187.264 353.408 188.512 351.008 188.512C349.064 188.512 347.672 187.672 346.496 186.112L345.008 187.36C346.352 189.184 348.248 190.288 350.936 190.288Z" fill="white"/>
<path d="M367.617 190H369.537V177.616H367.617V186.184C367.617 187.816 366.129 188.56 364.617 188.56C362.769 188.56 361.785 187.432 361.785 185.224V177.616H359.865V185.56C359.865 188.56 361.497 190.288 364.041 190.288C366.105 190.288 367.041 189.16 367.521 187.984H367.617V190Z" fill="white"/>
<path d="M373.626 190H375.546V187.984H375.642C376.386 189.52 377.562 190.288 379.266 190.288C382.362 190.288 384.306 187.768 384.306 183.808C384.306 179.848 382.362 177.328 379.266 177.328C377.562 177.328 376.29 178.072 375.642 179.632H375.546V172.24H373.626V190ZM378.738 188.56C376.986 188.56 375.546 187.648 375.546 186.04V181.432C375.546 180.064 376.986 179.056 378.738 179.056C380.898 179.056 382.242 180.544 382.242 182.752V184.864C382.242 187.072 380.898 188.56 378.738 188.56Z" fill="white"/>
<path d="M389.468 190V181.408C389.468 179.824 390.908 179.056 392.42 179.056C394.244 179.056 395.084 180.184 395.084 182.392V190H397.004V181.408C397.004 179.824 398.396 179.056 399.908 179.056C401.78 179.056 402.62 180.208 402.62 182.392V190H404.54V182.056C404.54 179.056 403.028 177.328 400.508 177.328C398.396 177.328 397.196 178.504 396.74 179.848H396.692C396.02 178.072 394.532 177.328 392.9 177.328C390.98 177.328 390.116 178.36 389.564 179.632H389.468V177.616H387.548V190H389.468Z" fill="white"/>
<path d="M409.461 174.712C410.277 174.712 410.637 174.28 410.637 173.632V173.32C410.637 172.672 410.277 172.24 409.461 172.24C408.645 172.24 408.285 172.672 408.285 173.32V173.632C408.285 174.28 408.645 174.712 409.461 174.712ZM408.501 190H410.421V177.616H408.501V190Z" fill="white"/>
<path d="M419.637 190V188.32H417.117V179.296H419.829V177.616H417.117V174.184H415.389V176.488C415.389 177.328 415.125 177.616 414.309 177.616H413.157V179.296H415.197V187.96C415.197 189.16 415.917 190 417.237 190H419.637Z" fill="white"/>
</g>
</g>
</g>
</svg>
