<?xml version="1.0" encoding="UTF-8"?>
<svg width="320px" height="180px" viewBox="0 0 320 180" version="1.1" xmlns="http://www.w3.org/2000/svg">
    <title>code-snippet</title>
    <g id="code-snippet" stroke="none" stroke-width="1" fill="none" fill-rule="evenodd">
        <rect id="field" fill="#F4F4F4" x="56" y="40" width="208" height="100"></rect>
        <rect id="line-1" fill="#525252" x="68" y="56" width="100" height="6"></rect>
        <rect id="line-2" fill="#525252" x="68" y="70" width="140" height="6"></rect>
        <rect id="line-3" fill="#525252" x="68" y="84" width="120" height="6"></rect>
        <rect id="line-4" fill="#A8A8A8" x="68" y="98" width="80" height="6"></rect>
        <rect id="line-5" fill="#A8A8A8" x="68" y="112" width="110" height="6"></rect>
        <g id="copy-icon" transform="translate(236, 48) scale(0.4375)" fill="#8D8D8D">
            <path d="M28,10V28H10V10H28m0-2H10a2,2,0,0,0-2,2V28a2,2,0,0,0,2,2H28a2,2,0,0,0,2-2V10a2,2,0,0,0-2-2Z"></path>
            <path d="M4,18H2V4A2,2,0,0,1,4,2H18V4H4Z"></path>
        </g>
    </g>
</svg>
