<?xml version="1.0" encoding="UTF-8"?>
<svg width="320px" height="180px" viewBox="0 0 320 180" version="1.1" xmlns="http://www.w3.org/2000/svg" xmlns:xlink="http://www.w3.org/1999/xlink">
    <title>combo-box</title>
    <defs>
        <rect id="panel-shape" x="76" y="92" width="168" height="68"></rect>
        <filter x="-10.0%" y="-8.8%" width="119.6%" height="129.4%" filterUnits="objectBoundingBox" id="panel-shadow">
            <feOffset dx="0" dy="2" in="SourceAlpha" result="shadowOffsetOuter1"></feOffset>
            <feGaussianBlur stdDeviation="3" in="shadowOffsetOuter1" result="shadowBlurOuter1"></feGaussianBlur>
            <feColorMatrix values="0 0 0 0 0   0 0 0 0 0   0 0 0 0 0  0 0 0 0.3 0" type="matrix" in="shadowBlurOuter1"></feColorMatrix>
        </filter>
    </defs>
    <g id="combo-box" stroke="none" stroke-width="1" fill="none" fill-rule="evenodd">
        <rect id="label" fill="#A8A8A8" x="76" y="44" width="60" height="8"></rect>
        <rect id="field" fill="#F4F4F4" x="76" y="60" width="168" height="32"></rect>
        <rect id="bottom-border" fill="#8D8D8D" x="76" y="91" width="168" height="1"></rect>
        <rect id="typed-text" fill="#525252" x="88" y="72" width="50" height="8"></rect>
        <g id="chevron" transform="translate(218, 68) scale(0.5) rotate(180 16 16)" fill="#161616">
            <path d="M16 22L6 12 7.4 10.6 16 19.2 24.6 10.6 26 12z"></path>
        </g>
        <use xlink:href="#panel-shape" fill="black" fill-opacity="1" filter="url(#panel-shadow)"></use>
        <use xlink:href="#panel-shape" fill="#FFFFFF"></use>
        <rect id="item-highlight" fill="#E0E0E0" x="76" y="98" width="168" height="22"></rect>
        <rect id="item-1" fill="#525252" x="88" y="105" width="60" height="8"></rect>
        <rect id="item-2" fill="#A8A8A8" x="88" y="127" width="80" height="8"></rect>
        <rect id="item-3" fill="#A8A8A8" x="88" y="145" width="50" height="8"></rect>
    </g>
</svg>
