<?xml version="1.0" encoding="UTF-8"?>
<svg width="320px" height="180px" viewBox="0 0 320 180" version="1.1" xmlns="http://www.w3.org/2000/svg">
    <title>data-table</title>
    <g id="data-table" stroke="none" stroke-width="1" fill="none" fill-rule="evenodd">
        <rect id="header" fill="#E0E0E0" x="60" y="50" width="200" height="20"></rect>
        <rect id="header-col-1" fill="#525252" x="68" y="57" width="50" height="6"></rect>
        <rect id="header-col-2" fill="#525252" x="134" y="57" width="40" height="6"></rect>
        <rect id="header-col-3" fill="#525252" x="201" y="57" width="40" height="6"></rect>
        <rect id="row-divider-1" fill="#E0E0E0" x="60" y="90" width="200" height="1"></rect>
        <rect id="row-divider-2" fill="#E0E0E0" x="60" y="110" width="200" height="1"></rect>
        <rect id="row-divider-3" fill="#E0E0E0" x="60" y="130" width="200" height="1"></rect>
        <rect id="row-1-col-1" fill="#A8A8A8" x="68" y="77" width="45" height="6"></rect>
        <rect id="row-1-col-2" fill="#A8A8A8" x="134" y="77" width="30" height="6"></rect>
        <rect id="row-1-col-3" fill="#A8A8A8" x="201" y="77" width="35" height="6"></rect>
        <rect id="row-2-col-1" fill="#A8A8A8" x="68" y="97" width="38" height="6"></rect>
        <rect id="row-2-col-2" fill="#A8A8A8" x="134" y="97" width="35" height="6"></rect>
        <rect id="row-2-col-3" fill="#A8A8A8" x="201" y="97" width="25" height="6"></rect>
        <rect id="row-3-col-1" fill="#A8A8A8" x="68" y="117" width="50" height="6"></rect>
        <rect id="row-3-col-2" fill="#A8A8A8" x="134" y="117" width="25" height="6"></rect>
        <rect id="row-3-col-3" fill="#A8A8A8" x="201" y="117" width="30" height="6"></rect>
    </g>
</svg>
