<?xml version="1.0" encoding="UTF-8"?>
<svg width="320px" height="180px" viewBox="0 0 320 180" version="1.1" xmlns="http://www.w3.org/2000/svg" xmlns:xlink="http://www.w3.org/1999/xlink">
    <title>date-picker</title>
    <defs>
        <rect id="panel-shape" x="88" y="72" width="144" height="92"></rect>
        <filter x="-10.4%" y="-6.5%" width="120.8%" height="123.9%" filterUnits="objectBoundingBox" id="panel-shadow">
            <feOffset dx="0" dy="2" in="SourceAlpha" result="shadowOffsetOuter1"></feOffset>
            <feGaussianBlur stdDeviation="3" in="shadowOffsetOuter1" result="shadowBlurOuter1"></feGaussianBlur>
            <feColorMatrix values="0 0 0 0 0   0 0 0 0 0   0 0 0 0 0  0 0 0 0.3 0" type="matrix" in="shadowBlurOuter1"></feColorMatrix>
        </filter>
    </defs>
    <g id="date-picker" stroke="none" stroke-width="1" fill="none" fill-rule="evenodd">
        <rect id="label" fill="var(--cds-text-placeholder, #a8a8a8)" x="88" y="24" width="56" height="6"></rect>
        <rect id="field" fill="var(--cds-field-01, #f4f4f4)" x="88" y="40" width="144" height="32"></rect>
        <rect id="bottom-border" fill="var(--cds-border-strong, #8d8d8d)" x="88" y="71" width="144" height="1"></rect>
        <rect id="value" fill="var(--cds-text-secondary, #525252)" x="100" y="52" width="56" height="8"></rect>
        <g id="calendar-icon" transform="translate(206, 49) scale(0.4375)" fill="var(--cds-border-strong, #8d8d8d)">
            <path d="M26,4h-4V2h-2v2h-8V2h-2v2H6C4.9,4,4,4.9,4,6v20c0,1.1,0.9,2,2,2h20c1.1,0,2-0.9,2-2V6C28,4.9,27.1,4,26,4z M26,26H6V12h20 V26z M26,10H6V6h4v2h2V6h8v2h2V6h4V10z"></path>
        </g>
        <use xlink:href="#panel-shape" fill="black" fill-opacity="1" filter="url(#panel-shadow)"></use>
        <use xlink:href="#panel-shape" fill="var(--cds-ui-02, #ffffff)"></use>
        <g id="prev-month" transform="translate(98, 78) scale(0.5)" fill="var(--cds-border-strong, #8d8d8d)">
            <path d="M20 24L10 16 20 8z"></path>
        </g>
        <rect id="month" fill="var(--cds-text-secondary, #525252)" x="132" y="84" width="56" height="6"></rect>
        <g id="next-month" transform="translate(206, 78) scale(0.5)" fill="var(--cds-border-strong, #8d8d8d)">
            <path d="M12 8L22 16 12 24z"></path>
        </g>
        <rect id="row-1" fill="var(--cds-border-subtle, #e0e0e0)" x="110" y="104" width="100" height="8"></rect>
        <rect id="row-2" fill="var(--cds-border-subtle, #e0e0e0)" x="110" y="122" width="100" height="8"></rect>
        <rect id="row-3" fill="var(--cds-border-subtle, #e0e0e0)" x="110" y="140" width="100" height="8"></rect>
    </g>
</svg>
