<?xml version="1.0" encoding="UTF-8"?>
<svg width="320px" height="180px" viewBox="0 0 320 180" version="1.1" xmlns="http://www.w3.org/2000/svg" xmlns:xlink="http://www.w3.org/1999/xlink">
    <title>local-storage</title>
    <g id="local-storage" stroke="none" stroke-width="1" fill="none" fill-rule="evenodd">
        <g id="Button" transform="translate(86.000000, 106.000000)">
            <rect id="Background" fill="#0F62FE" x="0" y="0" width="148" height="32"></rect>
            <g id="Label" transform="translate(16.696000, 11.120000)" fill="#FFFFFF" fill-rule="nonzero">
                <path d="M3.372,9.024 C2.308,9.024 1.48,8.662 0.888,7.938 C0.296,7.214 0,6.148 0,4.74 C0,3.332 0.296,2.25 0.888,1.494 C1.48,0.738 2.308,0.36 3.372,0.36 C4.076,0.36 4.666,0.52 5.142,0.84 C5.618,1.16 5.988,1.612 6.252,2.196 L5.436,2.688 C5.268,2.256 5.012,1.91 4.668,1.65 C4.324,1.39 3.892,1.26 3.372,1.26 C3.012,1.26 2.69,1.328 2.406,1.464 C2.122,1.6 1.882,1.794 1.686,2.046 C1.49,2.298 1.34,2.598 1.236,2.946 C1.132,3.294 1.08,3.684 1.08,4.116 L1.08,5.364 C1.08,6.228 1.28,6.904 1.68,7.392 C2.08,7.88 2.644,8.124 3.372,8.124 C3.908,8.124 4.356,7.986 4.716,7.71 C5.076,7.434 5.34,7.068 5.508,6.612 L6.312,7.116 C6.048,7.708 5.668,8.174 5.172,8.514 C4.676,8.854 4.076,9.024 3.372,9.024 Z" id="Path"></path>
                <path d="M8.93314285,8.88 C8.59714285,8.88 8.34314285,8.786 8.17114285,8.598 C7.99914285,8.41 7.91314285,8.172 7.91314285,7.884 L7.91314285,0 L8.87314285,0 L8.87314285,8.04 L9.78514285,8.04 L9.78514285,8.88 L8.93314285,8.88 Z" id="Path"></path>
                <path d="M13.6422857,9.024 C13.2182857,9.024 12.8362857,8.948 12.4962857,8.796 C12.1562857,8.644 11.8642857,8.426 11.6202857,8.142 C11.3762857,7.858 11.1882857,7.518 11.0562857,7.122 C10.9242857,6.726 10.8582857,6.28 10.8582857,5.784 C10.8582857,5.296 10.9242857,4.852 11.0562857,4.452 C11.1882857,4.052 11.3762857,3.71 11.6202857,3.426 C11.8642857,3.142 12.1562857,2.924 12.4962857,2.772 C12.8362857,2.62 13.2182857,2.544 13.6422857,2.544 C14.0582857,2.544 14.4302857,2.62 14.7582857,2.772 C15.0862857,2.924 15.3662857,3.134 15.5982857,3.402 C15.8302857,3.67 16.0082857,3.988 16.1322857,4.356 C16.2562857,4.724 16.3182857,5.128 16.3182857,5.568 L16.3182857,6.024 L11.8662857,6.024 L11.8662857,6.312 C11.8662857,6.576 11.9082857,6.822 11.9922857,7.05 C12.0762857,7.278 12.1962857,7.476 12.3522857,7.644 C12.5082857,7.812 12.7002857,7.944 12.9282857,8.04 C13.1562857,8.136 13.4142857,8.184 13.7022857,8.184 C14.0942857,8.184 14.4362857,8.092 14.7282857,7.908 C15.0202857,7.724 15.2462857,7.46 15.4062857,7.116 L16.0902857,7.608 C15.8902857,8.032 15.5782857,8.374 15.1542857,8.634 C14.7302857,8.894 14.2262857,9.024 13.6422857,9.024 Z M13.6422857,3.348 C13.3782857,3.348 13.1382857,3.394 12.9222857,3.486 C12.7062857,3.578 12.5202857,3.708 12.3642857,3.876 C12.2082857,4.044 12.0862857,4.242 11.9982857,4.47 C11.9102857,4.698 11.8662857,4.948 11.8662857,5.22 L11.8662857,5.304 L15.2862857,5.304 L15.2862857,5.172 C15.2862857,4.62 15.1362857,4.178 14.8362857,3.846 C14.5362857,3.514 14.1382857,3.348 13.6422857,3.348 Z" id="Shape"></path>
                <path d="M22.5394286,8.88 C22.1794286,8.88 21.9214286,8.784 21.7654286,8.592 C21.6094286,8.4 21.5114286,8.16 21.4714286,7.872 L21.4114286,7.872 C21.2754286,8.256 21.0514286,8.544 20.7394286,8.736 C20.4274286,8.928 20.0554286,9.024 19.6234286,9.024 C18.9674286,9.024 18.4574286,8.856 18.0934286,8.52 C17.7294286,8.184 17.5474286,7.728 17.5474286,7.152 C17.5474286,6.568 17.7614286,6.12 18.1894286,5.808 C18.6174286,5.496 19.2834286,5.34 20.1874286,5.34 L21.4114286,5.34 L21.4114286,4.728 C21.4114286,4.288 21.2914286,3.952 21.0514286,3.72 C20.8114286,3.488 20.4434286,3.372 19.9474286,3.372 C19.5714286,3.372 19.2574286,3.456 19.0054286,3.624 C18.7534286,3.792 18.5434286,4.016 18.3754286,4.296 L17.7994286,3.756 C17.9674286,3.42 18.2354286,3.134 18.6034286,2.898 C18.9714286,2.662 19.4354286,2.544 19.9954286,2.544 C20.7474286,2.544 21.3314286,2.728 21.7474286,3.096 C22.1634286,3.464 22.3714286,3.976 22.3714286,4.632 L22.3714286,8.04 L23.0794286,8.04 L23.0794286,8.88 L22.5394286,8.88 Z M19.7794286,8.208 C20.0194286,8.208 20.2394286,8.18 20.4394286,8.124 C20.6394286,8.068 20.8114286,7.988 20.9554286,7.884 C21.0994286,7.78 21.2114286,7.66 21.2914286,7.524 C21.3714286,7.388 21.4114286,7.24 21.4114286,7.08 L21.4114286,6.06 L20.1394286,6.06 C19.5874286,6.06 19.1854286,6.14 18.9334286,6.3 C18.6814286,6.46 18.5554286,6.692 18.5554286,6.996 L18.5554286,7.248 C18.5554286,7.552 18.6654286,7.788 18.8854286,7.956 C19.1054286,8.124 19.4034286,8.208 19.7794286,8.208 Z" id="Shape"></path>
                <path d="M24.5845714,8.88 L24.5845714,2.688 L25.5445714,2.688 L25.5445714,3.828 L25.6045714,3.828 C25.7165714,3.532 25.9165714,3.268 26.2045714,3.036 C26.4925714,2.804 26.8885714,2.688 27.3925714,2.688 L27.7645714,2.688 L27.7645714,3.648 L27.2005714,3.648 C26.6805714,3.648 26.2745714,3.746 25.9825714,3.942 C25.6905714,4.138 25.5445714,4.384 25.5445714,4.68 L25.5445714,8.88 L24.5845714,8.88 Z" id="Path"></path>
                <path d="M33.9548571,9.024 C33.3788571,9.024 32.8968571,8.914 32.5088571,8.694 C32.1208571,8.474 31.7868571,8.18 31.5068571,7.812 L32.1908571,7.26 C32.4308571,7.564 32.6988571,7.798 32.9948571,7.962 C33.2908571,8.126 33.6348571,8.208 34.0268571,8.208 C34.4348571,8.208 34.7528571,8.12 34.9808571,7.944 C35.2088571,7.768 35.3228571,7.52 35.3228571,7.2 C35.3228571,6.96 35.2448571,6.754 35.0888571,6.582 C34.9328571,6.41 34.6508571,6.292 34.2428571,6.228 L33.7508571,6.156 C33.4628571,6.116 33.1988571,6.054 32.9588571,5.97 C32.7188571,5.886 32.5088571,5.774 32.3288571,5.634 C32.1488571,5.494 32.0088571,5.32 31.9088571,5.112 C31.8088571,4.904 31.7588571,4.656 31.7588571,4.368 C31.7588571,4.064 31.8148571,3.798 31.9268571,3.57 C32.0388571,3.342 32.1928571,3.152 32.3888571,3 C32.5848571,2.848 32.8188571,2.734 33.0908571,2.658 C33.3628571,2.582 33.6548571,2.544 33.9668571,2.544 C34.4708571,2.544 34.8928571,2.632 35.2328571,2.808 C35.5728571,2.984 35.8708571,3.228 36.1268571,3.54 L35.4908571,4.116 C35.3548571,3.924 35.1548571,3.75 34.8908571,3.594 C34.6268571,3.438 34.2948571,3.36 33.8948571,3.36 C33.4948571,3.36 33.1928571,3.446 32.9888571,3.618 C32.7848571,3.79 32.6828571,4.024 32.6828571,4.32 C32.6828571,4.624 32.7848571,4.844 32.9888571,4.98 C33.1928571,5.116 33.4868571,5.216 33.8708571,5.28 L34.3508571,5.352 C35.0388571,5.456 35.5268571,5.654 35.8148571,5.946 C36.1028571,6.238 36.2468571,6.62 36.2468571,7.092 C36.2468571,7.692 36.0428571,8.164 35.6348571,8.508 C35.2268571,8.852 34.6668571,9.024 33.9548571,9.024 Z" id="Path"></path>
                <path d="M39.36,8.88 C39.024,8.88 38.77,8.786 38.598,8.598 C38.426,8.41 38.34,8.164 38.34,7.86 L38.34,3.528 L37.32,3.528 L37.32,2.688 L37.896,2.688 C38.104,2.688 38.246,2.646 38.322,2.562 C38.398,2.478 38.436,2.332 38.436,2.124 L38.436,0.972 L39.3,0.972 L39.3,2.688 L40.656,2.688 L40.656,3.528 L39.3,3.528 L39.3,8.04 L40.56,8.04 L40.56,8.88 L39.36,8.88 Z" id="Path"></path>
                <path d="M44.6331428,9.024 C44.2171428,9.024 43.8371428,8.948 43.4931428,8.796 C43.1491428,8.644 42.8551428,8.426 42.6111428,8.142 C42.3671428,7.858 42.1771428,7.518 42.0411428,7.122 C41.9051428,6.726 41.8371428,6.28 41.8371428,5.784 C41.8371428,5.296 41.9051428,4.852 42.0411428,4.452 C42.1771428,4.052 42.3671428,3.71 42.6111428,3.426 C42.8551428,3.142 43.1491428,2.924 43.4931428,2.772 C43.8371428,2.62 44.2171428,2.544 44.6331428,2.544 C45.0491428,2.544 45.4271428,2.62 45.7671428,2.772 C46.1071428,2.924 46.4011428,3.142 46.6491428,3.426 C46.8971428,3.71 47.0891428,4.052 47.2251428,4.452 C47.3611428,4.852 47.4291428,5.296 47.4291428,5.784 C47.4291428,6.28 47.3611428,6.726 47.2251428,7.122 C47.0891428,7.518 46.8971428,7.858 46.6491428,8.142 C46.4011428,8.426 46.1071428,8.644 45.7671428,8.796 C45.4271428,8.948 45.0491428,9.024 44.6331428,9.024 Z M44.6331428,8.172 C45.1531428,8.172 45.5771428,8.012 45.9051428,7.692 C46.2331428,7.372 46.3971428,6.884 46.3971428,6.228 L46.3971428,5.34 C46.3971428,4.684 46.2331428,4.196 45.9051428,3.876 C45.5771428,3.556 45.1531428,3.396 44.6331428,3.396 C44.1131428,3.396 43.6891428,3.556 43.3611428,3.876 C43.0331428,4.196 42.8691428,4.684 42.8691428,5.34 L42.8691428,6.228 C42.8691428,6.884 43.0331428,7.372 43.3611428,7.692 C43.6891428,8.012 44.1131428,8.172 44.6331428,8.172 Z" id="Shape"></path>
                <path d="M49.1502857,8.88 L49.1502857,2.688 L50.1102857,2.688 L50.1102857,3.828 L50.1702857,3.828 C50.2822857,3.532 50.4822857,3.268 50.7702857,3.036 C51.0582857,2.804 51.4542857,2.688 51.9582857,2.688 L52.3302857,2.688 L52.3302857,3.648 L51.7662857,3.648 C51.2462857,3.648 50.8402857,3.746 50.5482857,3.942 C50.2562857,4.138 50.1102857,4.384 50.1102857,4.68 L50.1102857,8.88 L49.1502857,8.88 Z" id="Path"></path>
                <path d="M58.1434285,8.88 C57.7834285,8.88 57.5254285,8.784 57.3694285,8.592 C57.2134285,8.4 57.1154285,8.16 57.0754285,7.872 L57.0154285,7.872 C56.8794285,8.256 56.6554285,8.544 56.3434285,8.736 C56.0314285,8.928 55.6594285,9.024 55.2274285,9.024 C54.5714285,9.024 54.0614285,8.856 53.6974285,8.52 C53.3334285,8.184 53.1514285,7.728 53.1514285,7.152 C53.1514285,6.568 53.3654285,6.12 53.7934285,5.808 C54.2214285,5.496 54.8874285,5.34 55.7914285,5.34 L57.0154285,5.34 L57.0154285,4.728 C57.0154285,4.288 56.8954285,3.952 56.6554285,3.72 C56.4154285,3.488 56.0474285,3.372 55.5514285,3.372 C55.1754285,3.372 54.8614285,3.456 54.6094285,3.624 C54.3574285,3.792 54.1474285,4.016 53.9794285,4.296 L53.4034285,3.756 C53.5714285,3.42 53.8394285,3.134 54.2074285,2.898 C54.5754285,2.662 55.0394285,2.544 55.5994285,2.544 C56.3514285,2.544 56.9354285,2.728 57.3514285,3.096 C57.7674285,3.464 57.9754285,3.976 57.9754285,4.632 L57.9754285,8.04 L58.6834285,8.04 L58.6834285,8.88 L58.1434285,8.88 Z M55.3834285,8.208 C55.6234285,8.208 55.8434285,8.18 56.0434285,8.124 C56.2434285,8.068 56.4154285,7.988 56.5594285,7.884 C56.7034285,7.78 56.8154285,7.66 56.8954285,7.524 C56.9754285,7.388 57.0154285,7.24 57.0154285,7.08 L57.0154285,6.06 L55.7434285,6.06 C55.1914285,6.06 54.7894285,6.14 54.5374285,6.3 C54.2854285,6.46 54.1594285,6.692 54.1594285,6.996 L54.1594285,7.248 C54.1594285,7.552 54.2694285,7.788 54.4894285,7.956 C54.7094285,8.124 55.0074285,8.208 55.3834285,8.208 Z" id="Shape"></path>
                <path d="M65.4085714,9.564 C65.4085714,10.204 65.1585714,10.674 64.6585714,10.974 C64.1585714,11.274 63.4085714,11.424 62.4085714,11.424 C61.4405714,11.424 60.7445714,11.292 60.3205714,11.028 C59.8965714,10.764 59.6845714,10.388 59.6845714,9.9 C59.6845714,9.564 59.7725714,9.302 59.9485714,9.114 C60.1245714,8.926 60.3645714,8.788 60.6685714,8.7 L60.6685714,8.568 C60.3005714,8.392 60.1165714,8.104 60.1165714,7.704 C60.1165714,7.392 60.2165714,7.154 60.4165714,6.99 C60.6165714,6.826 60.8725714,6.704 61.1845714,6.624 L61.1845714,6.576 C60.8165714,6.4 60.5305714,6.148 60.3265714,5.82 C60.1225714,5.492 60.0205714,5.112 60.0205714,4.68 C60.0205714,4.368 60.0765714,4.08 60.1885714,3.816 C60.3005714,3.552 60.4585714,3.326 60.6625714,3.138 C60.8665714,2.95 61.1105714,2.804 61.3945714,2.7 C61.6785714,2.596 61.9965714,2.544 62.3485714,2.544 C62.7885714,2.544 63.1805714,2.624 63.5245714,2.784 L63.5245714,2.676 C63.5245714,2.436 63.5805714,2.238 63.6925714,2.082 C63.8045714,1.926 63.9885714,1.848 64.2445714,1.848 L65.1685714,1.848 L65.1685714,2.688 L63.9925714,2.688 L63.9925714,3.084 C64.2165714,3.276 64.3905714,3.506 64.5145714,3.774 C64.6385714,4.042 64.7005714,4.344 64.7005714,4.68 C64.7005714,4.992 64.6445714,5.28 64.5325714,5.544 C64.4205714,5.808 64.2625714,6.034 64.0585714,6.222 C63.8545714,6.41 63.6085714,6.556 63.3205714,6.66 C63.0325714,6.764 62.7125714,6.816 62.3605714,6.816 C62.1605714,6.816 61.9605714,6.796 61.7605714,6.756 C61.5525714,6.812 61.3645714,6.894 61.1965714,7.002 C61.0285714,7.11 60.9445714,7.26 60.9445714,7.452 C60.9445714,7.636 61.0325714,7.76 61.2085714,7.824 C61.3845714,7.888 61.6125714,7.92 61.8925714,7.92 L63.2125714,7.92 C63.9805714,7.92 64.5385714,8.066 64.8865714,8.358 C65.2345714,8.65 65.4085714,9.052 65.4085714,9.564 Z M64.5085714,9.636 C64.5085714,9.388 64.4145714,9.19 64.2265714,9.042 C64.0385714,8.894 63.7045714,8.82 63.2245714,8.82 L61.1605714,8.82 C60.7765714,8.996 60.5845714,9.276 60.5845714,9.66 C60.5845714,9.932 60.6865714,10.164 60.8905714,10.356 C61.0945714,10.548 61.4405714,10.644 61.9285714,10.644 L62.8165714,10.644 C63.3525714,10.644 63.7685714,10.56 64.0645714,10.392 C64.3605714,10.224 64.5085714,9.972 64.5085714,9.636 Z M62.3605714,6.048 C62.7685714,6.048 63.0925714,5.95 63.3325714,5.754 C63.5725714,5.558 63.6925714,5.256 63.6925714,4.848 L63.6925714,4.512 C63.6925714,4.104 63.5725714,3.802 63.3325714,3.606 C63.0925714,3.41 62.7685714,3.312 62.3605714,3.312 C61.9525714,3.312 61.6285714,3.41 61.3885714,3.606 C61.1485714,3.802 61.0285714,4.104 61.0285714,4.512 L61.0285714,4.848 C61.0285714,5.256 61.1485714,5.558 61.3885714,5.754 C61.6285714,5.95 61.9525714,6.048 62.3605714,6.048 Z" id="Shape"></path>
                <path d="M68.9177142,9.024 C68.4937142,9.024 68.1117142,8.948 67.7717142,8.796 C67.4317142,8.644 67.1397142,8.426 66.8957142,8.142 C66.6517142,7.858 66.4637142,7.518 66.3317142,7.122 C66.1997142,6.726 66.1337142,6.28 66.1337142,5.784 C66.1337142,5.296 66.1997142,4.852 66.3317142,4.452 C66.4637142,4.052 66.6517142,3.71 66.8957142,3.426 C67.1397142,3.142 67.4317142,2.924 67.7717142,2.772 C68.1117142,2.62 68.4937142,2.544 68.9177142,2.544 C69.3337142,2.544 69.7057142,2.62 70.0337142,2.772 C70.3617142,2.924 70.6417142,3.134 70.8737142,3.402 C71.1057142,3.67 71.2837142,3.988 71.4077142,4.356 C71.5317142,4.724 71.5937142,5.128 71.5937142,5.568 L71.5937142,6.024 L67.1417142,6.024 L67.1417142,6.312 C67.1417142,6.576 67.1837142,6.822 67.2677142,7.05 C67.3517142,7.278 67.4717142,7.476 67.6277142,7.644 C67.7837142,7.812 67.9757142,7.944 68.2037142,8.04 C68.4317142,8.136 68.6897142,8.184 68.9777142,8.184 C69.3697142,8.184 69.7117142,8.092 70.0037142,7.908 C70.2957142,7.724 70.5217142,7.46 70.6817142,7.116 L71.3657142,7.608 C71.1657142,8.032 70.8537142,8.374 70.4297142,8.634 C70.0057142,8.894 69.5017142,9.024 68.9177142,9.024 Z M68.9177142,3.348 C68.6537142,3.348 68.4137142,3.394 68.1977142,3.486 C67.9817142,3.578 67.7957142,3.708 67.6397142,3.876 C67.4837142,4.044 67.3617142,4.242 67.2737142,4.47 C67.1857142,4.698 67.1417142,4.948 67.1417142,5.22 L67.1417142,5.304 L70.5617142,5.304 L70.5617142,5.172 C70.5617142,4.62 70.4117142,4.178 70.1117142,3.846 C69.8117142,3.514 69.4137142,3.348 68.9177142,3.348 Z" id="Shape"></path>
            </g>
        </g>
        <g id="toggle-/-small-/-group-/-02-off" transform="translate(86.000000, 60.000000)">
            <g id="Group">
                <rect id="pill" fill="#8D8D8D" x="0" y="0" width="32" height="16" rx="8"></rect>
                <circle id="handle" fill="#FFFFFF" cx="8" cy="8" r="5"></circle>
            </g>
            <g id="Text" transform="translate(40.812000, 2.640000)" fill="#161616" fill-rule="nonzero">
                <path d="M4.144,10.528 C3.50933333,10.528 2.93766667,10.4183333 2.429,10.199 C1.92033333,9.97966667 1.48633333,9.65766667 1.127,9.233 C0.767666667,8.80833333 0.49,8.281 0.294,7.651 C0.098,7.021 0,6.29533333 0,5.474 C0,4.65266667 0.098,3.92933333 0.294,3.304 C0.49,2.67866667 0.767666667,2.15133333 1.127,1.722 C1.48633333,1.29266667 1.92033333,0.968333333 2.429,0.749 C2.93766667,0.529666667 3.50933333,0.42 4.144,0.42 C4.76933333,0.42 5.33866667,0.529666667 5.852,0.749 C6.36533333,0.968333333 6.80166667,1.29266667 7.161,1.722 C7.52033333,2.15133333 7.798,2.67866667 7.994,3.304 C8.19,3.92933333 8.288,4.65266667 8.288,5.474 C8.288,6.29533333 8.19,7.021 7.994,7.651 C7.798,8.281 7.52033333,8.80833333 7.161,9.233 C6.80166667,9.65766667 6.36533333,9.97966667 5.852,10.199 C5.33866667,10.4183333 4.76933333,10.528 4.144,10.528 Z M4.144,9.478 C4.564,9.478 4.95133333,9.40333333 5.306,9.254 C5.66066667,9.10466667 5.96633333,8.89 6.223,8.61 C6.47966667,8.33 6.678,7.994 6.818,7.602 C6.958,7.21 7.028,6.77133333 7.028,6.286 L7.028,4.662 C7.028,4.17666667 6.958,3.738 6.818,3.346 C6.678,2.954 6.47966667,2.618 6.223,2.338 C5.96633333,2.058 5.66066667,1.84333333 5.306,1.694 C4.95133333,1.54466667 4.564,1.47 4.144,1.47 C3.724,1.47 3.33666667,1.54466667 2.982,1.694 C2.62733333,1.84333333 2.32166667,2.058 2.065,2.338 C1.80833333,2.618 1.61,2.954 1.47,3.346 C1.33,3.738 1.26,4.17666667 1.26,4.662 L1.26,6.286 C1.26,6.77133333 1.33,7.21 1.47,7.602 C1.61,7.994 1.80833333,8.33 2.065,8.61 C2.32166667,8.89 2.62733333,9.10466667 2.982,9.254 C3.33666667,9.40333333 3.724,9.478 4.144,9.478 Z" id="Shape"></path>
                <path d="M10.842,4.116 L9.666,4.116 L9.666,3.136 L10.842,3.136 L10.842,1.68 C10.842,1.176 10.9726667,0.77 11.234,0.462 C11.4953333,0.154 11.892,0 12.424,0 L13.516,0 L13.516,0.98 L11.962,0.98 L11.962,3.136 L13.516,3.136 L13.516,4.116 L11.962,4.116 L11.962,10.36 L10.842,10.36 L10.842,4.116 Z" id="Path"></path>
                <path d="M15.538,4.116 L14.362,4.116 L14.362,3.136 L15.538,3.136 L15.538,1.68 C15.538,1.176 15.6686667,0.77 15.93,0.462 C16.1913333,0.154 16.588,0 17.12,0 L18.212,0 L18.212,0.98 L16.658,0.98 L16.658,3.136 L18.212,3.136 L18.212,4.116 L16.658,4.116 L16.658,10.36 L15.538,10.36 L15.538,4.116 Z" id="Path"></path>
            </g>
        </g>
        <rect id="Rectangle-3-Copy-6" fill="#A8A8A8" opacity="0.754768008" x="86" y="42" width="70" height="5"></rect>
    </g>
</svg>