<?xml version="1.0" encoding="UTF-8"?>
<svg width="320px" height="180px" viewBox="0 0 320 180" version="1.1" xmlns="http://www.w3.org/2000/svg" xmlns:xlink="http://www.w3.org/1999/xlink">
    <title>recursive-list</title>
    <g id="recursive-list" stroke="none" stroke-width="1" fill="none" fill-rule="evenodd">
        <g id="–-Item-1-•-Item-1a-•" transform="translate(120.432000, 45.624000)" fill="#161616" fill-rule="nonzero">
            <polygon id="Path" points="0 5.184 0 4.272 6.192 4.272 6.192 5.184"></polygon>
            <polygon id="Path" points="13.4194286 8.376 13.4194286 7.536 14.5954286 7.536 14.5954286 0.84 13.4194286 0.84 13.4194286 0 16.7794286 0 16.7794286 0.84 15.6034286 0.84 15.6034286 7.536 16.7794286 7.536 16.7794286 8.376"></polygon>
            <path d="M20.0245714,8.376 C19.6885714,8.376 19.4345714,8.282 19.2625714,8.094 C19.0905714,7.906 19.0045714,7.66 19.0045714,7.356 L19.0045714,3.024 L17.9845714,3.024 L17.9845714,2.184 L18.5605714,2.184 C18.7685714,2.184 18.9105714,2.142 18.9865714,2.058 C19.0625714,1.974 19.1005714,1.828 19.1005714,1.62 L19.1005714,0.468 L19.9645714,0.468 L19.9645714,2.184 L21.3205714,2.184 L21.3205714,3.024 L19.9645714,3.024 L19.9645714,7.536 L21.2245714,7.536 L21.2245714,8.376 L20.0245714,8.376 Z" id="Path"></path>
            <path d="M25.2857143,8.52 C24.8617143,8.52 24.4797143,8.444 24.1397143,8.292 C23.7997143,8.14 23.5077143,7.922 23.2637143,7.638 C23.0197143,7.354 22.8317143,7.014 22.6997143,6.618 C22.5677143,6.222 22.5017143,5.776 22.5017143,5.28 C22.5017143,4.792 22.5677143,4.348 22.6997143,3.948 C22.8317143,3.548 23.0197143,3.206 23.2637143,2.922 C23.5077143,2.638 23.7997143,2.42 24.1397143,2.268 C24.4797143,2.116 24.8617143,2.04 25.2857143,2.04 C25.7017143,2.04 26.0737143,2.116 26.4017143,2.268 C26.7297143,2.42 27.0097143,2.63 27.2417143,2.898 C27.4737143,3.166 27.6517143,3.484 27.7757143,3.852 C27.8997143,4.22 27.9617143,4.624 27.9617143,5.064 L27.9617143,5.52 L23.5097143,5.52 L23.5097143,5.808 C23.5097143,6.072 23.5517143,6.318 23.6357143,6.546 C23.7197143,6.774 23.8397143,6.972 23.9957143,7.14 C24.1517143,7.308 24.3437143,7.44 24.5717143,7.536 C24.7997143,7.632 25.0577143,7.68 25.3457143,7.68 C25.7377143,7.68 26.0797143,7.588 26.3717143,7.404 C26.6637143,7.22 26.8897143,6.956 27.0497143,6.612 L27.7337143,7.104 C27.5337143,7.528 27.2217143,7.87 26.7977143,8.13 C26.3737143,8.39 25.8697143,8.52 25.2857143,8.52 Z M25.2857143,2.844 C25.0217143,2.844 24.7817143,2.89 24.5657143,2.982 C24.3497143,3.074 24.1637143,3.204 24.0077143,3.372 C23.8517143,3.54 23.7297143,3.738 23.6417143,3.966 C23.5537143,4.194 23.5097143,4.444 23.5097143,4.716 L23.5097143,4.8 L26.9297143,4.8 L26.9297143,4.668 C26.9297143,4.116 26.7797143,3.674 26.4797143,3.342 C26.1797143,3.01 25.7817143,2.844 25.2857143,2.844 Z" id="Shape"></path>
            <path d="M29.6828571,8.376 L29.6828571,2.184 L30.6428571,2.184 L30.6428571,3.192 L30.6908571,3.192 C30.7628571,3.032 30.8448571,2.882 30.9368571,2.742 C31.0288571,2.602 31.1408571,2.48 31.2728571,2.376 C31.4048571,2.272 31.5588571,2.19 31.7348571,2.13 C31.9108571,2.07 32.1188571,2.04 32.3588571,2.04 C32.7668571,2.04 33.1428571,2.138 33.4868571,2.334 C33.8308571,2.53 34.0868571,2.852 34.2548571,3.3 L34.2788571,3.3 C34.3908571,2.964 34.6008571,2.67 34.9088571,2.418 C35.2168571,2.166 35.6348571,2.04 36.1628571,2.04 C36.7948571,2.04 37.2888571,2.246 37.6448571,2.658 C38.0008571,3.07 38.1788571,3.652 38.1788571,4.404 L38.1788571,8.376 L37.2188571,8.376 L37.2188571,4.572 C37.2188571,4.02 37.1108571,3.604 36.8948571,3.324 C36.6788571,3.044 36.3348571,2.904 35.8628571,2.904 C35.6708571,2.904 35.4888571,2.928 35.3168571,2.976 C35.1448571,3.024 34.9908571,3.096 34.8548571,3.192 C34.7188571,3.288 34.6108571,3.41 34.5308571,3.558 C34.4508571,3.706 34.4108571,3.88 34.4108571,4.08 L34.4108571,8.376 L33.4508571,8.376 L33.4508571,4.572 C33.4508571,4.02 33.3428571,3.604 33.1268571,3.324 C32.9108571,3.044 32.5748571,2.904 32.1188571,2.904 C31.9268571,2.904 31.7428571,2.928 31.5668571,2.976 C31.3908571,3.024 31.2348571,3.096 31.0988571,3.192 C30.9628571,3.288 30.8528571,3.41 30.7688571,3.558 C30.6848571,3.706 30.6428571,3.88 30.6428571,4.08 L30.6428571,8.376 L29.6828571,8.376 Z" id="Path"></path>
            <polygon id="Path" points="43.3011428 8.376 43.3011428 7.488 45.6411428 7.488 45.6411428 0.744 45.5571428 0.744 43.4451428 2.712 42.8571428 2.076 45.0771428 0 46.6491428 0 46.6491428 7.488 48.8091428 7.488 48.8091428 8.376"></polygon>
            <path d="M29.944,22.144 C29.408,22.144 29.03,22.024 28.81,21.784 C28.59,21.544 28.48,21.248 28.48,20.896 L28.48,20.56 C28.48,20.208 28.59,19.912 28.81,19.672 C29.03,19.432 29.408,19.312 29.944,19.312 C30.48,19.312 30.858,19.432 31.078,19.672 C31.298,19.912 31.408,20.208 31.408,20.56 L31.408,20.896 C31.408,21.248 31.298,21.544 31.078,21.784 C30.858,22.024 30.48,22.144 29.944,22.144 Z" id="Path"></path>
            <polygon id="Path" points="36.1462857 24.376 36.1462857 23.536 37.3222857 23.536 37.3222857 16.84 36.1462857 16.84 36.1462857 16 39.5062857 16 39.5062857 16.84 38.3302857 16.84 38.3302857 23.536 39.5062857 23.536 39.5062857 24.376"></polygon>
            <path d="M42.7514286,24.376 C42.4154286,24.376 42.1614286,24.282 41.9894286,24.094 C41.8174286,23.906 41.7314286,23.66 41.7314286,23.356 L41.7314286,19.024 L40.7114286,19.024 L40.7114286,18.184 L41.2874286,18.184 C41.4954286,18.184 41.6374286,18.142 41.7134286,18.058 C41.7894286,17.974 41.8274286,17.828 41.8274286,17.62 L41.8274286,16.468 L42.6914286,16.468 L42.6914286,18.184 L44.0474286,18.184 L44.0474286,19.024 L42.6914286,19.024 L42.6914286,23.536 L43.9514286,23.536 L43.9514286,24.376 L42.7514286,24.376 Z" id="Path"></path>
            <path d="M48.0125714,24.52 C47.5885714,24.52 47.2065714,24.444 46.8665714,24.292 C46.5265714,24.14 46.2345714,23.922 45.9905714,23.638 C45.7465714,23.354 45.5585714,23.014 45.4265714,22.618 C45.2945714,22.222 45.2285714,21.776 45.2285714,21.28 C45.2285714,20.792 45.2945714,20.348 45.4265714,19.948 C45.5585714,19.548 45.7465714,19.206 45.9905714,18.922 C46.2345714,18.638 46.5265714,18.42 46.8665714,18.268 C47.2065714,18.116 47.5885714,18.04 48.0125714,18.04 C48.4285714,18.04 48.8005714,18.116 49.1285714,18.268 C49.4565714,18.42 49.7365714,18.63 49.9685714,18.898 C50.2005714,19.166 50.3785714,19.484 50.5025714,19.852 C50.6265714,20.22 50.6885714,20.624 50.6885714,21.064 L50.6885714,21.52 L46.2365714,21.52 L46.2365714,21.808 C46.2365714,22.072 46.2785714,22.318 46.3625714,22.546 C46.4465714,22.774 46.5665714,22.972 46.7225714,23.14 C46.8785714,23.308 47.0705714,23.44 47.2985714,23.536 C47.5265714,23.632 47.7845714,23.68 48.0725714,23.68 C48.4645714,23.68 48.8065714,23.588 49.0985714,23.404 C49.3905714,23.22 49.6165714,22.956 49.7765714,22.612 L50.4605714,23.104 C50.2605714,23.528 49.9485714,23.87 49.5245714,24.13 C49.1005714,24.39 48.5965714,24.52 48.0125714,24.52 Z M48.0125714,18.844 C47.7485714,18.844 47.5085714,18.89 47.2925714,18.982 C47.0765714,19.074 46.8905714,19.204 46.7345714,19.372 C46.5785714,19.54 46.4565714,19.738 46.3685714,19.966 C46.2805714,20.194 46.2365714,20.444 46.2365714,20.716 L46.2365714,20.8 L49.6565714,20.8 L49.6565714,20.668 C49.6565714,20.116 49.5065714,19.674 49.2065714,19.342 C48.9065714,19.01 48.5085714,18.844 48.0125714,18.844 Z" id="Shape"></path>
            <path d="M52.4097143,24.376 L52.4097143,18.184 L53.3697143,18.184 L53.3697143,19.192 L53.4177143,19.192 C53.4897143,19.032 53.5717143,18.882 53.6637143,18.742 C53.7557143,18.602 53.8677143,18.48 53.9997143,18.376 C54.1317143,18.272 54.2857143,18.19 54.4617143,18.13 C54.6377143,18.07 54.8457143,18.04 55.0857143,18.04 C55.4937143,18.04 55.8697143,18.138 56.2137143,18.334 C56.5577143,18.53 56.8137143,18.852 56.9817143,19.3 L57.0057143,19.3 C57.1177143,18.964 57.3277143,18.67 57.6357143,18.418 C57.9437143,18.166 58.3617143,18.04 58.8897143,18.04 C59.5217143,18.04 60.0157143,18.246 60.3717143,18.658 C60.7277143,19.07 60.9057143,19.652 60.9057143,20.404 L60.9057143,24.376 L59.9457143,24.376 L59.9457143,20.572 C59.9457143,20.02 59.8377143,19.604 59.6217143,19.324 C59.4057143,19.044 59.0617143,18.904 58.5897143,18.904 C58.3977143,18.904 58.2157143,18.928 58.0437143,18.976 C57.8717143,19.024 57.7177143,19.096 57.5817143,19.192 C57.4457143,19.288 57.3377143,19.41 57.2577143,19.558 C57.1777143,19.706 57.1377143,19.88 57.1377143,20.08 L57.1377143,24.376 L56.1777143,24.376 L56.1777143,20.572 C56.1777143,20.02 56.0697143,19.604 55.8537143,19.324 C55.6377143,19.044 55.3017143,18.904 54.8457143,18.904 C54.6537143,18.904 54.4697143,18.928 54.2937143,18.976 C54.1177143,19.024 53.9617143,19.096 53.8257143,19.192 C53.6897143,19.288 53.5797143,19.41 53.4957143,19.558 C53.4117143,19.706 53.3697143,19.88 53.3697143,20.08 L53.3697143,24.376 L52.4097143,24.376 Z" id="Path"></path>
            <polygon id="Path" points="66.028 24.376 66.028 23.488 68.368 23.488 68.368 16.744 68.284 16.744 66.172 18.712 65.584 18.076 67.804 16 69.376 16 69.376 23.488 71.536 23.488 71.536 24.376"></polygon>
            <path d="M77.8291428,24.376 C77.4691428,24.376 77.2111428,24.28 77.0551428,24.088 C76.8991428,23.896 76.8011428,23.656 76.7611428,23.368 L76.7011428,23.368 C76.5651428,23.752 76.3411428,24.04 76.0291428,24.232 C75.7171428,24.424 75.3451428,24.52 74.9131428,24.52 C74.2571428,24.52 73.7471428,24.352 73.3831428,24.016 C73.0191428,23.68 72.8371428,23.224 72.8371428,22.648 C72.8371428,22.064 73.0511428,21.616 73.4791428,21.304 C73.9071428,20.992 74.5731428,20.836 75.4771428,20.836 L76.7011428,20.836 L76.7011428,20.224 C76.7011428,19.784 76.5811428,19.448 76.3411428,19.216 C76.1011428,18.984 75.7331428,18.868 75.2371428,18.868 C74.8611428,18.868 74.5471428,18.952 74.2951428,19.12 C74.0431428,19.288 73.8331428,19.512 73.6651428,19.792 L73.0891428,19.252 C73.2571428,18.916 73.5251428,18.63 73.8931428,18.394 C74.2611428,18.158 74.7251428,18.04 75.2851428,18.04 C76.0371428,18.04 76.6211428,18.224 77.0371428,18.592 C77.4531428,18.96 77.6611428,19.472 77.6611428,20.128 L77.6611428,23.536 L78.3691428,23.536 L78.3691428,24.376 L77.8291428,24.376 Z M75.0691428,23.704 C75.3091428,23.704 75.5291428,23.676 75.7291428,23.62 C75.9291428,23.564 76.1011428,23.484 76.2451428,23.38 C76.3891428,23.276 76.5011428,23.156 76.5811428,23.02 C76.6611428,22.884 76.7011428,22.736 76.7011428,22.576 L76.7011428,21.556 L75.4291428,21.556 C74.8771428,21.556 74.4751428,21.636 74.2231428,21.796 C73.9711428,21.956 73.8451428,22.188 73.8451428,22.492 L73.8451428,22.744 C73.8451428,23.048 73.9551428,23.284 74.1751428,23.452 C74.3951428,23.62 74.6931428,23.704 75.0691428,23.704 Z" id="Shape"></path>
            <path d="M29.944,38.144 C29.408,38.144 29.03,38.024 28.81,37.784 C28.59,37.544 28.48,37.248 28.48,36.896 L28.48,36.56 C28.48,36.208 28.59,35.912 28.81,35.672 C29.03,35.432 29.408,35.312 29.944,35.312 C30.48,35.312 30.858,35.432 31.078,35.672 C31.298,35.912 31.408,36.208 31.408,36.56 L31.408,36.896 C31.408,37.248 31.298,37.544 31.078,37.784 C30.858,38.024 30.48,38.144 29.944,38.144 Z" id="Path"></path>
            <polygon id="Path" points="36.1462857 40.376 36.1462857 39.536 37.3222857 39.536 37.3222857 32.84 36.1462857 32.84 36.1462857 32 39.5062857 32 39.5062857 32.84 38.3302857 32.84 38.3302857 39.536 39.5062857 39.536 39.5062857 40.376"></polygon>
            <path d="M42.7514286,40.376 C42.4154286,40.376 42.1614286,40.282 41.9894286,40.094 C41.8174286,39.906 41.7314286,39.66 41.7314286,39.356 L41.7314286,35.024 L40.7114286,35.024 L40.7114286,34.184 L41.2874286,34.184 C41.4954286,34.184 41.6374286,34.142 41.7134286,34.058 C41.7894286,33.974 41.8274286,33.828 41.8274286,33.62 L41.8274286,32.468 L42.6914286,32.468 L42.6914286,34.184 L44.0474286,34.184 L44.0474286,35.024 L42.6914286,35.024 L42.6914286,39.536 L43.9514286,39.536 L43.9514286,40.376 L42.7514286,40.376 Z" id="Path"></path>
            <path d="M48.0125714,40.52 C47.5885714,40.52 47.2065714,40.444 46.8665714,40.292 C46.5265714,40.14 46.2345714,39.922 45.9905714,39.638 C45.7465714,39.354 45.5585714,39.014 45.4265714,38.618 C45.2945714,38.222 45.2285714,37.776 45.2285714,37.28 C45.2285714,36.792 45.2945714,36.348 45.4265714,35.948 C45.5585714,35.548 45.7465714,35.206 45.9905714,34.922 C46.2345714,34.638 46.5265714,34.42 46.8665714,34.268 C47.2065714,34.116 47.5885714,34.04 48.0125714,34.04 C48.4285714,34.04 48.8005714,34.116 49.1285714,34.268 C49.4565714,34.42 49.7365714,34.63 49.9685714,34.898 C50.2005714,35.166 50.3785714,35.484 50.5025714,35.852 C50.6265714,36.22 50.6885714,36.624 50.6885714,37.064 L50.6885714,37.52 L46.2365714,37.52 L46.2365714,37.808 C46.2365714,38.072 46.2785714,38.318 46.3625714,38.546 C46.4465714,38.774 46.5665714,38.972 46.7225714,39.14 C46.8785714,39.308 47.0705714,39.44 47.2985714,39.536 C47.5265714,39.632 47.7845714,39.68 48.0725714,39.68 C48.4645714,39.68 48.8065714,39.588 49.0985714,39.404 C49.3905714,39.22 49.6165714,38.956 49.7765714,38.612 L50.4605714,39.104 C50.2605714,39.528 49.9485714,39.87 49.5245714,40.13 C49.1005714,40.39 48.5965714,40.52 48.0125714,40.52 Z M48.0125714,34.844 C47.7485714,34.844 47.5085714,34.89 47.2925714,34.982 C47.0765714,35.074 46.8905714,35.204 46.7345714,35.372 C46.5785714,35.54 46.4565714,35.738 46.3685714,35.966 C46.2805714,36.194 46.2365714,36.444 46.2365714,36.716 L46.2365714,36.8 L49.6565714,36.8 L49.6565714,36.668 C49.6565714,36.116 49.5065714,35.674 49.2065714,35.342 C48.9065714,35.01 48.5085714,34.844 48.0125714,34.844 Z" id="Shape"></path>
            <path d="M52.4097143,40.376 L52.4097143,34.184 L53.3697143,34.184 L53.3697143,35.192 L53.4177143,35.192 C53.4897143,35.032 53.5717143,34.882 53.6637143,34.742 C53.7557143,34.602 53.8677143,34.48 53.9997143,34.376 C54.1317143,34.272 54.2857143,34.19 54.4617143,34.13 C54.6377143,34.07 54.8457143,34.04 55.0857143,34.04 C55.4937143,34.04 55.8697143,34.138 56.2137143,34.334 C56.5577143,34.53 56.8137143,34.852 56.9817143,35.3 L57.0057143,35.3 C57.1177143,34.964 57.3277143,34.67 57.6357143,34.418 C57.9437143,34.166 58.3617143,34.04 58.8897143,34.04 C59.5217143,34.04 60.0157143,34.246 60.3717143,34.658 C60.7277143,35.07 60.9057143,35.652 60.9057143,36.404 L60.9057143,40.376 L59.9457143,40.376 L59.9457143,36.572 C59.9457143,36.02 59.8377143,35.604 59.6217143,35.324 C59.4057143,35.044 59.0617143,34.904 58.5897143,34.904 C58.3977143,34.904 58.2157143,34.928 58.0437143,34.976 C57.8717143,35.024 57.7177143,35.096 57.5817143,35.192 C57.4457143,35.288 57.3377143,35.41 57.2577143,35.558 C57.1777143,35.706 57.1377143,35.88 57.1377143,36.08 L57.1377143,40.376 L56.1777143,40.376 L56.1777143,36.572 C56.1777143,36.02 56.0697143,35.604 55.8537143,35.324 C55.6377143,35.044 55.3017143,34.904 54.8457143,34.904 C54.6537143,34.904 54.4697143,34.928 54.2937143,34.976 C54.1177143,35.024 53.9617143,35.096 53.8257143,35.192 C53.6897143,35.288 53.5797143,35.41 53.4957143,35.558 C53.4117143,35.706 53.3697143,35.88 53.3697143,36.08 L53.3697143,40.376 L52.4097143,40.376 Z" id="Path"></path>
            <polygon id="Path" points="66.028 40.376 66.028 39.488 68.368 39.488 68.368 32.744 68.284 32.744 66.172 34.712 65.584 34.076 67.804 32 69.376 32 69.376 39.488 71.536 39.488 71.536 40.376"></polygon>
            <path d="M73.3291428,31.496 L74.2891428,31.496 L74.2891428,35.192 L74.3371428,35.192 C74.4971428,34.8 74.7311428,34.51 75.0391428,34.322 C75.3471428,34.134 75.7171428,34.04 76.1491428,34.04 C76.5331428,34.04 76.8811428,34.116 77.1931428,34.268 C77.5051428,34.42 77.7711428,34.636 77.9911428,34.916 C78.2111428,35.196 78.3791428,35.536 78.4951428,35.936 C78.6111428,36.336 78.6691428,36.784 78.6691428,37.28 C78.6691428,37.776 78.6111428,38.224 78.4951428,38.624 C78.3791428,39.024 78.2111428,39.364 77.9911428,39.644 C77.7711428,39.924 77.5051428,40.14 77.1931428,40.292 C76.8811428,40.444 76.5331428,40.52 76.1491428,40.52 C75.3091428,40.52 74.7051428,40.136 74.3371428,39.368 L74.2891428,39.368 L74.2891428,40.376 L73.3291428,40.376 L73.3291428,31.496 Z M75.8851428,39.656 C76.4291428,39.656 76.8571428,39.486 77.1691428,39.146 C77.4811428,38.806 77.6371428,38.36 77.6371428,37.808 L77.6371428,36.752 C77.6371428,36.2 77.4811428,35.754 77.1691428,35.414 C76.8571428,35.074 76.4291428,34.904 75.8851428,34.904 C75.6691428,34.904 75.4631428,34.934 75.2671428,34.994 C75.0711428,35.054 74.9011428,35.136 74.7571428,35.24 C74.6131428,35.344 74.4991428,35.47 74.4151428,35.618 C74.3311428,35.766 74.2891428,35.924 74.2891428,36.092 L74.2891428,38.396 C74.2891428,38.596 74.3311428,38.774 74.4151428,38.93 C74.4991428,39.086 74.6131428,39.218 74.7571428,39.326 C74.9011428,39.434 75.0711428,39.516 75.2671428,39.572 C75.4631428,39.628 75.6691428,39.656 75.8851428,39.656 Z" id="Shape"></path>
            <polygon id="Path" points="0 53.184 0 52.272 6.192 52.272 6.192 53.184"></polygon>
            <polygon id="Path" points="13.4194286 56.376 13.4194286 55.536 14.5954286 55.536 14.5954286 48.84 13.4194286 48.84 13.4194286 48 16.7794286 48 16.7794286 48.84 15.6034286 48.84 15.6034286 55.536 16.7794286 55.536 16.7794286 56.376"></polygon>
            <path d="M20.0245714,56.376 C19.6885714,56.376 19.4345714,56.282 19.2625714,56.094 C19.0905714,55.906 19.0045714,55.66 19.0045714,55.356 L19.0045714,51.024 L17.9845714,51.024 L17.9845714,50.184 L18.5605714,50.184 C18.7685714,50.184 18.9105714,50.142 18.9865714,50.058 C19.0625714,49.974 19.1005714,49.828 19.1005714,49.62 L19.1005714,48.468 L19.9645714,48.468 L19.9645714,50.184 L21.3205714,50.184 L21.3205714,51.024 L19.9645714,51.024 L19.9645714,55.536 L21.2245714,55.536 L21.2245714,56.376 L20.0245714,56.376 Z" id="Path"></path>
            <path d="M25.2857143,56.52 C24.8617143,56.52 24.4797143,56.444 24.1397143,56.292 C23.7997143,56.14 23.5077143,55.922 23.2637143,55.638 C23.0197143,55.354 22.8317143,55.014 22.6997143,54.618 C22.5677143,54.222 22.5017143,53.776 22.5017143,53.28 C22.5017143,52.792 22.5677143,52.348 22.6997143,51.948 C22.8317143,51.548 23.0197143,51.206 23.2637143,50.922 C23.5077143,50.638 23.7997143,50.42 24.1397143,50.268 C24.4797143,50.116 24.8617143,50.04 25.2857143,50.04 C25.7017143,50.04 26.0737143,50.116 26.4017143,50.268 C26.7297143,50.42 27.0097143,50.63 27.2417143,50.898 C27.4737143,51.166 27.6517143,51.484 27.7757143,51.852 C27.8997143,52.22 27.9617143,52.624 27.9617143,53.064 L27.9617143,53.52 L23.5097143,53.52 L23.5097143,53.808 C23.5097143,54.072 23.5517143,54.318 23.6357143,54.546 C23.7197143,54.774 23.8397143,54.972 23.9957143,55.14 C24.1517143,55.308 24.3437143,55.44 24.5717143,55.536 C24.7997143,55.632 25.0577143,55.68 25.3457143,55.68 C25.7377143,55.68 26.0797143,55.588 26.3717143,55.404 C26.6637143,55.22 26.8897143,54.956 27.0497143,54.612 L27.7337143,55.104 C27.5337143,55.528 27.2217143,55.87 26.7977143,56.13 C26.3737143,56.39 25.8697143,56.52 25.2857143,56.52 Z M25.2857143,50.844 C25.0217143,50.844 24.7817143,50.89 24.5657143,50.982 C24.3497143,51.074 24.1637143,51.204 24.0077143,51.372 C23.8517143,51.54 23.7297143,51.738 23.6417143,51.966 C23.5537143,52.194 23.5097143,52.444 23.5097143,52.716 L23.5097143,52.8 L26.9297143,52.8 L26.9297143,52.668 C26.9297143,52.116 26.7797143,51.674 26.4797143,51.342 C26.1797143,51.01 25.7817143,50.844 25.2857143,50.844 Z" id="Shape"></path>
            <path d="M29.6828571,56.376 L29.6828571,50.184 L30.6428571,50.184 L30.6428571,51.192 L30.6908571,51.192 C30.7628571,51.032 30.8448571,50.882 30.9368571,50.742 C31.0288571,50.602 31.1408571,50.48 31.2728571,50.376 C31.4048571,50.272 31.5588571,50.19 31.7348571,50.13 C31.9108571,50.07 32.1188571,50.04 32.3588571,50.04 C32.7668571,50.04 33.1428571,50.138 33.4868571,50.334 C33.8308571,50.53 34.0868571,50.852 34.2548571,51.3 L34.2788571,51.3 C34.3908571,50.964 34.6008571,50.67 34.9088571,50.418 C35.2168571,50.166 35.6348571,50.04 36.1628571,50.04 C36.7948571,50.04 37.2888571,50.246 37.6448571,50.658 C38.0008571,51.07 38.1788571,51.652 38.1788571,52.404 L38.1788571,56.376 L37.2188571,56.376 L37.2188571,52.572 C37.2188571,52.02 37.1108571,51.604 36.8948571,51.324 C36.6788571,51.044 36.3348571,50.904 35.8628571,50.904 C35.6708571,50.904 35.4888571,50.928 35.3168571,50.976 C35.1448571,51.024 34.9908571,51.096 34.8548571,51.192 C34.7188571,51.288 34.6108571,51.41 34.5308571,51.558 C34.4508571,51.706 34.4108571,51.88 34.4108571,52.08 L34.4108571,56.376 L33.4508571,56.376 L33.4508571,52.572 C33.4508571,52.02 33.3428571,51.604 33.1268571,51.324 C32.9108571,51.044 32.5748571,50.904 32.1188571,50.904 C31.9268571,50.904 31.7428571,50.928 31.5668571,50.976 C31.3908571,51.024 31.2348571,51.096 31.0988571,51.192 C30.9628571,51.288 30.8528571,51.41 30.7688571,51.558 C30.6848571,51.706 30.6428571,51.88 30.6428571,52.08 L30.6428571,56.376 L29.6828571,56.376 Z" id="Path"></path>
            <path d="M48.6411428,56.376 L43.1451428,56.376 L43.1451428,55.344 L45.8811428,52.824 C46.2731428,52.464 46.6011428,52.082 46.8651428,51.678 C47.1291428,51.274 47.2611428,50.868 47.2611428,50.46 L47.2611428,50.316 C47.2611428,49.852 47.1331428,49.476 46.8771428,49.188 C46.6211428,48.9 46.2331428,48.756 45.7131428,48.756 C45.4571428,48.756 45.2331428,48.792 45.0411428,48.864 C44.8491428,48.936 44.6831428,49.036 44.5431428,49.164 C44.4031428,49.292 44.2871428,49.442 44.1951428,49.614 C44.1031428,49.786 44.0291428,49.972 43.9731428,50.172 L43.0731428,49.824 C43.1531428,49.576 43.2631428,49.334 43.4031428,49.098 C43.5431428,48.862 43.7191428,48.652 43.9311428,48.468 C44.1431428,48.284 44.3991428,48.136 44.6991428,48.024 C44.9991428,47.912 45.3531428,47.856 45.7611428,47.856 C46.1691428,47.856 46.5331428,47.916 46.8531428,48.036 C47.1731428,48.156 47.4411428,48.324 47.6571428,48.54 C47.8731428,48.756 48.0391428,49.012 48.1551428,49.308 C48.2711428,49.604 48.3291428,49.932 48.3291428,50.292 C48.3291428,50.62 48.2831428,50.924 48.1911428,51.204 C48.0991428,51.484 47.9731428,51.75 47.8131428,52.002 C47.6531428,52.254 47.4591428,52.5 47.2311428,52.74 C47.0031428,52.98 46.7571428,53.22 46.4931428,53.46 L44.2371428,55.488 L48.6411428,55.488 L48.6411428,56.376 Z" id="Path"></path>
            <path d="M29.944,70.144 C29.408,70.144 29.03,70.024 28.81,69.784 C28.59,69.544 28.48,69.248 28.48,68.896 L28.48,68.56 C28.48,68.208 28.59,67.912 28.81,67.672 C29.03,67.432 29.408,67.312 29.944,67.312 C30.48,67.312 30.858,67.432 31.078,67.672 C31.298,67.912 31.408,68.208 31.408,68.56 L31.408,68.896 C31.408,69.248 31.298,69.544 31.078,69.784 C30.858,70.024 30.48,70.144 29.944,70.144 Z" id="Path"></path>
            <polygon id="Path" points="36.1462857 72.376 36.1462857 71.536 37.3222857 71.536 37.3222857 64.84 36.1462857 64.84 36.1462857 64 39.5062857 64 39.5062857 64.84 38.3302857 64.84 38.3302857 71.536 39.5062857 71.536 39.5062857 72.376"></polygon>
            <path d="M42.7514286,72.376 C42.4154286,72.376 42.1614286,72.282 41.9894286,72.094 C41.8174286,71.906 41.7314286,71.66 41.7314286,71.356 L41.7314286,67.024 L40.7114286,67.024 L40.7114286,66.184 L41.2874286,66.184 C41.4954286,66.184 41.6374286,66.142 41.7134286,66.058 C41.7894286,65.974 41.8274286,65.828 41.8274286,65.62 L41.8274286,64.468 L42.6914286,64.468 L42.6914286,66.184 L44.0474286,66.184 L44.0474286,67.024 L42.6914286,67.024 L42.6914286,71.536 L43.9514286,71.536 L43.9514286,72.376 L42.7514286,72.376 Z" id="Path"></path>
            <path d="M48.0125714,72.52 C47.5885714,72.52 47.2065714,72.444 46.8665714,72.292 C46.5265714,72.14 46.2345714,71.922 45.9905714,71.638 C45.7465714,71.354 45.5585714,71.014 45.4265714,70.618 C45.2945714,70.222 45.2285714,69.776 45.2285714,69.28 C45.2285714,68.792 45.2945714,68.348 45.4265714,67.948 C45.5585714,67.548 45.7465714,67.206 45.9905714,66.922 C46.2345714,66.638 46.5265714,66.42 46.8665714,66.268 C47.2065714,66.116 47.5885714,66.04 48.0125714,66.04 C48.4285714,66.04 48.8005714,66.116 49.1285714,66.268 C49.4565714,66.42 49.7365714,66.63 49.9685714,66.898 C50.2005714,67.166 50.3785714,67.484 50.5025714,67.852 C50.6265714,68.22 50.6885714,68.624 50.6885714,69.064 L50.6885714,69.52 L46.2365714,69.52 L46.2365714,69.808 C46.2365714,70.072 46.2785714,70.318 46.3625714,70.546 C46.4465714,70.774 46.5665714,70.972 46.7225714,71.14 C46.8785714,71.308 47.0705714,71.44 47.2985714,71.536 C47.5265714,71.632 47.7845714,71.68 48.0725714,71.68 C48.4645714,71.68 48.8065714,71.588 49.0985714,71.404 C49.3905714,71.22 49.6165714,70.956 49.7765714,70.612 L50.4605714,71.104 C50.2605714,71.528 49.9485714,71.87 49.5245714,72.13 C49.1005714,72.39 48.5965714,72.52 48.0125714,72.52 Z M48.0125714,66.844 C47.7485714,66.844 47.5085714,66.89 47.2925714,66.982 C47.0765714,67.074 46.8905714,67.204 46.7345714,67.372 C46.5785714,67.54 46.4565714,67.738 46.3685714,67.966 C46.2805714,68.194 46.2365714,68.444 46.2365714,68.716 L46.2365714,68.8 L49.6565714,68.8 L49.6565714,68.668 C49.6565714,68.116 49.5065714,67.674 49.2065714,67.342 C48.9065714,67.01 48.5085714,66.844 48.0125714,66.844 Z" id="Shape"></path>
            <path d="M52.4097143,72.376 L52.4097143,66.184 L53.3697143,66.184 L53.3697143,67.192 L53.4177143,67.192 C53.4897143,67.032 53.5717143,66.882 53.6637143,66.742 C53.7557143,66.602 53.8677143,66.48 53.9997143,66.376 C54.1317143,66.272 54.2857143,66.19 54.4617143,66.13 C54.6377143,66.07 54.8457143,66.04 55.0857143,66.04 C55.4937143,66.04 55.8697143,66.138 56.2137143,66.334 C56.5577143,66.53 56.8137143,66.852 56.9817143,67.3 L57.0057143,67.3 C57.1177143,66.964 57.3277143,66.67 57.6357143,66.418 C57.9437143,66.166 58.3617143,66.04 58.8897143,66.04 C59.5217143,66.04 60.0157143,66.246 60.3717143,66.658 C60.7277143,67.07 60.9057143,67.652 60.9057143,68.404 L60.9057143,72.376 L59.9457143,72.376 L59.9457143,68.572 C59.9457143,68.02 59.8377143,67.604 59.6217143,67.324 C59.4057143,67.044 59.0617143,66.904 58.5897143,66.904 C58.3977143,66.904 58.2157143,66.928 58.0437143,66.976 C57.8717143,67.024 57.7177143,67.096 57.5817143,67.192 C57.4457143,67.288 57.3377143,67.41 57.2577143,67.558 C57.1777143,67.706 57.1377143,67.88 57.1377143,68.08 L57.1377143,72.376 L56.1777143,72.376 L56.1777143,68.572 C56.1777143,68.02 56.0697143,67.604 55.8537143,67.324 C55.6377143,67.044 55.3017143,66.904 54.8457143,66.904 C54.6537143,66.904 54.4697143,66.928 54.2937143,66.976 C54.1177143,67.024 53.9617143,67.096 53.8257143,67.192 C53.6897143,67.288 53.5797143,67.41 53.4957143,67.558 C53.4117143,67.706 53.3697143,67.88 53.3697143,68.08 L53.3697143,72.376 L52.4097143,72.376 Z" id="Path"></path>
            <path d="M71.368,72.376 L65.872,72.376 L65.872,71.344 L68.608,68.824 C69,68.464 69.328,68.082 69.592,67.678 C69.856,67.274 69.988,66.868 69.988,66.46 L69.988,66.316 C69.988,65.852 69.86,65.476 69.604,65.188 C69.348,64.9 68.96,64.756 68.44,64.756 C68.184,64.756 67.96,64.792 67.768,64.864 C67.576,64.936 67.41,65.036 67.27,65.164 C67.13,65.292 67.014,65.442 66.922,65.614 C66.83,65.786 66.756,65.972 66.7,66.172 L65.8,65.824 C65.88,65.576 65.99,65.334 66.13,65.098 C66.27,64.862 66.446,64.652 66.658,64.468 C66.87,64.284 67.126,64.136 67.426,64.024 C67.726,63.912 68.08,63.856 68.488,63.856 C68.896,63.856 69.26,63.916 69.58,64.036 C69.9,64.156 70.168,64.324 70.384,64.54 C70.6,64.756 70.766,65.012 70.882,65.308 C70.998,65.604 71.056,65.932 71.056,66.292 C71.056,66.62 71.01,66.924 70.918,67.204 C70.826,67.484 70.7,67.75 70.54,68.002 C70.38,68.254 70.186,68.5 69.958,68.74 C69.73,68.98 69.484,69.22 69.22,69.46 L66.964,71.488 L71.368,71.488 L71.368,72.376 Z" id="Path"></path>
            <path d="M77.8291428,72.376 C77.4691428,72.376 77.2111428,72.28 77.0551428,72.088 C76.8991428,71.896 76.8011428,71.656 76.7611428,71.368 L76.7011428,71.368 C76.5651428,71.752 76.3411428,72.04 76.0291428,72.232 C75.7171428,72.424 75.3451428,72.52 74.9131428,72.52 C74.2571428,72.52 73.7471428,72.352 73.3831428,72.016 C73.0191428,71.68 72.8371428,71.224 72.8371428,70.648 C72.8371428,70.064 73.0511428,69.616 73.4791428,69.304 C73.9071428,68.992 74.5731428,68.836 75.4771428,68.836 L76.7011428,68.836 L76.7011428,68.224 C76.7011428,67.784 76.5811428,67.448 76.3411428,67.216 C76.1011428,66.984 75.7331428,66.868 75.2371428,66.868 C74.8611428,66.868 74.5471428,66.952 74.2951428,67.12 C74.0431428,67.288 73.8331428,67.512 73.6651428,67.792 L73.0891428,67.252 C73.2571428,66.916 73.5251428,66.63 73.8931428,66.394 C74.2611428,66.158 74.7251428,66.04 75.2851428,66.04 C76.0371428,66.04 76.6211428,66.224 77.0371428,66.592 C77.4531428,66.96 77.6611428,67.472 77.6611428,68.128 L77.6611428,71.536 L78.3691428,71.536 L78.3691428,72.376 L77.8291428,72.376 Z M75.0691428,71.704 C75.3091428,71.704 75.5291428,71.676 75.7291428,71.62 C75.9291428,71.564 76.1011428,71.484 76.2451428,71.38 C76.3891428,71.276 76.5011428,71.156 76.5811428,71.02 C76.6611428,70.884 76.7011428,70.736 76.7011428,70.576 L76.7011428,69.556 L75.4291428,69.556 C74.8771428,69.556 74.4751428,69.636 74.2231428,69.796 C73.9711428,69.956 73.8451428,70.188 73.8451428,70.492 L73.8451428,70.744 C73.8451428,71.048 73.9551428,71.284 74.1751428,71.452 C74.3951428,71.62 74.6931428,71.704 75.0691428,71.704 Z" id="Shape"></path>
            <path d="M29.944,86.144 C29.408,86.144 29.03,86.024 28.81,85.784 C28.59,85.544 28.48,85.248 28.48,84.896 L28.48,84.56 C28.48,84.208 28.59,83.912 28.81,83.672 C29.03,83.432 29.408,83.312 29.944,83.312 C30.48,83.312 30.858,83.432 31.078,83.672 C31.298,83.912 31.408,84.208 31.408,84.56 L31.408,84.896 C31.408,85.248 31.298,85.544 31.078,85.784 C30.858,86.024 30.48,86.144 29.944,86.144 Z" id="Path"></path>
            <polygon id="Path" points="36.1462857 88.376 36.1462857 87.536 37.3222857 87.536 37.3222857 80.84 36.1462857 80.84 36.1462857 80 39.5062857 80 39.5062857 80.84 38.3302857 80.84 38.3302857 87.536 39.5062857 87.536 39.5062857 88.376"></polygon>
            <path d="M42.7514286,88.376 C42.4154286,88.376 42.1614286,88.282 41.9894286,88.094 C41.8174286,87.906 41.7314286,87.66 41.7314286,87.356 L41.7314286,83.024 L40.7114286,83.024 L40.7114286,82.184 L41.2874286,82.184 C41.4954286,82.184 41.6374286,82.142 41.7134286,82.058 C41.7894286,81.974 41.8274286,81.828 41.8274286,81.62 L41.8274286,80.468 L42.6914286,80.468 L42.6914286,82.184 L44.0474286,82.184 L44.0474286,83.024 L42.6914286,83.024 L42.6914286,87.536 L43.9514286,87.536 L43.9514286,88.376 L42.7514286,88.376 Z" id="Path"></path>
            <path d="M48.0125714,88.52 C47.5885714,88.52 47.2065714,88.444 46.8665714,88.292 C46.5265714,88.14 46.2345714,87.922 45.9905714,87.638 C45.7465714,87.354 45.5585714,87.014 45.4265714,86.618 C45.2945714,86.222 45.2285714,85.776 45.2285714,85.28 C45.2285714,84.792 45.2945714,84.348 45.4265714,83.948 C45.5585714,83.548 45.7465714,83.206 45.9905714,82.922 C46.2345714,82.638 46.5265714,82.42 46.8665714,82.268 C47.2065714,82.116 47.5885714,82.04 48.0125714,82.04 C48.4285714,82.04 48.8005714,82.116 49.1285714,82.268 C49.4565714,82.42 49.7365714,82.63 49.9685714,82.898 C50.2005714,83.166 50.3785714,83.484 50.5025714,83.852 C50.6265714,84.22 50.6885714,84.624 50.6885714,85.064 L50.6885714,85.52 L46.2365714,85.52 L46.2365714,85.808 C46.2365714,86.072 46.2785714,86.318 46.3625714,86.546 C46.4465714,86.774 46.5665714,86.972 46.7225714,87.14 C46.8785714,87.308 47.0705714,87.44 47.2985714,87.536 C47.5265714,87.632 47.7845714,87.68 48.0725714,87.68 C48.4645714,87.68 48.8065714,87.588 49.0985714,87.404 C49.3905714,87.22 49.6165714,86.956 49.7765714,86.612 L50.4605714,87.104 C50.2605714,87.528 49.9485714,87.87 49.5245714,88.13 C49.1005714,88.39 48.5965714,88.52 48.0125714,88.52 Z M48.0125714,82.844 C47.7485714,82.844 47.5085714,82.89 47.2925714,82.982 C47.0765714,83.074 46.8905714,83.204 46.7345714,83.372 C46.5785714,83.54 46.4565714,83.738 46.3685714,83.966 C46.2805714,84.194 46.2365714,84.444 46.2365714,84.716 L46.2365714,84.8 L49.6565714,84.8 L49.6565714,84.668 C49.6565714,84.116 49.5065714,83.674 49.2065714,83.342 C48.9065714,83.01 48.5085714,82.844 48.0125714,82.844 Z" id="Shape"></path>
            <path d="M52.4097143,88.376 L52.4097143,82.184 L53.3697143,82.184 L53.3697143,83.192 L53.4177143,83.192 C53.4897143,83.032 53.5717143,82.882 53.6637143,82.742 C53.7557143,82.602 53.8677143,82.48 53.9997143,82.376 C54.1317143,82.272 54.2857143,82.19 54.4617143,82.13 C54.6377143,82.07 54.8457143,82.04 55.0857143,82.04 C55.4937143,82.04 55.8697143,82.138 56.2137143,82.334 C56.5577143,82.53 56.8137143,82.852 56.9817143,83.3 L57.0057143,83.3 C57.1177143,82.964 57.3277143,82.67 57.6357143,82.418 C57.9437143,82.166 58.3617143,82.04 58.8897143,82.04 C59.5217143,82.04 60.0157143,82.246 60.3717143,82.658 C60.7277143,83.07 60.9057143,83.652 60.9057143,84.404 L60.9057143,88.376 L59.9457143,88.376 L59.9457143,84.572 C59.9457143,84.02 59.8377143,83.604 59.6217143,83.324 C59.4057143,83.044 59.0617143,82.904 58.5897143,82.904 C58.3977143,82.904 58.2157143,82.928 58.0437143,82.976 C57.8717143,83.024 57.7177143,83.096 57.5817143,83.192 C57.4457143,83.288 57.3377143,83.41 57.2577143,83.558 C57.1777143,83.706 57.1377143,83.88 57.1377143,84.08 L57.1377143,88.376 L56.1777143,88.376 L56.1777143,84.572 C56.1777143,84.02 56.0697143,83.604 55.8537143,83.324 C55.6377143,83.044 55.3017143,82.904 54.8457143,82.904 C54.6537143,82.904 54.4697143,82.928 54.2937143,82.976 C54.1177143,83.024 53.9617143,83.096 53.8257143,83.192 C53.6897143,83.288 53.5797143,83.41 53.4957143,83.558 C53.4117143,83.706 53.3697143,83.88 53.3697143,84.08 L53.3697143,88.376 L52.4097143,88.376 Z" id="Path"></path>
            <path d="M71.368,88.376 L65.872,88.376 L65.872,87.344 L68.608,84.824 C69,84.464 69.328,84.082 69.592,83.678 C69.856,83.274 69.988,82.868 69.988,82.46 L69.988,82.316 C69.988,81.852 69.86,81.476 69.604,81.188 C69.348,80.9 68.96,80.756 68.44,80.756 C68.184,80.756 67.96,80.792 67.768,80.864 C67.576,80.936 67.41,81.036 67.27,81.164 C67.13,81.292 67.014,81.442 66.922,81.614 C66.83,81.786 66.756,81.972 66.7,82.172 L65.8,81.824 C65.88,81.576 65.99,81.334 66.13,81.098 C66.27,80.862 66.446,80.652 66.658,80.468 C66.87,80.284 67.126,80.136 67.426,80.024 C67.726,79.912 68.08,79.856 68.488,79.856 C68.896,79.856 69.26,79.916 69.58,80.036 C69.9,80.156 70.168,80.324 70.384,80.54 C70.6,80.756 70.766,81.012 70.882,81.308 C70.998,81.604 71.056,81.932 71.056,82.292 C71.056,82.62 71.01,82.924 70.918,83.204 C70.826,83.484 70.7,83.75 70.54,84.002 C70.38,84.254 70.186,84.5 69.958,84.74 C69.73,84.98 69.484,85.22 69.22,85.46 L66.964,87.488 L71.368,87.488 L71.368,88.376 Z" id="Path"></path>
            <path d="M73.3291428,79.496 L74.2891428,79.496 L74.2891428,83.192 L74.3371428,83.192 C74.4971428,82.8 74.7311428,82.51 75.0391428,82.322 C75.3471428,82.134 75.7171428,82.04 76.1491428,82.04 C76.5331428,82.04 76.8811428,82.116 77.1931428,82.268 C77.5051428,82.42 77.7711428,82.636 77.9911428,82.916 C78.2111428,83.196 78.3791428,83.536 78.4951428,83.936 C78.6111428,84.336 78.6691428,84.784 78.6691428,85.28 C78.6691428,85.776 78.6111428,86.224 78.4951428,86.624 C78.3791428,87.024 78.2111428,87.364 77.9911428,87.644 C77.7711428,87.924 77.5051428,88.14 77.1931428,88.292 C76.8811428,88.444 76.5331428,88.52 76.1491428,88.52 C75.3091428,88.52 74.7051428,88.136 74.3371428,87.368 L74.2891428,87.368 L74.2891428,88.376 L73.3291428,88.376 L73.3291428,79.496 Z M75.8851428,87.656 C76.4291428,87.656 76.8571428,87.486 77.1691428,87.146 C77.4811428,86.806 77.6371428,86.36 77.6371428,85.808 L77.6371428,84.752 C77.6371428,84.2 77.4811428,83.754 77.1691428,83.414 C76.8571428,83.074 76.4291428,82.904 75.8851428,82.904 C75.6691428,82.904 75.4631428,82.934 75.2671428,82.994 C75.0711428,83.054 74.9011428,83.136 74.7571428,83.24 C74.6131428,83.344 74.4991428,83.47 74.4151428,83.618 C74.3311428,83.766 74.2891428,83.924 74.2891428,84.092 L74.2891428,86.396 C74.2891428,86.596 74.3311428,86.774 74.4151428,86.93 C74.4991428,87.086 74.6131428,87.218 74.7571428,87.326 C74.9011428,87.434 75.0711428,87.516 75.2671428,87.572 C75.4631428,87.628 75.6691428,87.656 75.8851428,87.656 Z" id="Shape"></path>
        </g>
    </g>
</svg>