<?xml version="1.0" encoding="UTF-8"?>
<svg width="320px" height="180px" viewBox="0 0 320 180" version="1.1" xmlns="http://www.w3.org/2000/svg" xmlns:xlink="http://www.w3.org/1999/xlink">
    <title>toggletip</title>
    <defs>
        <rect id="bubble-shape" x="101" y="54" width="120" height="52" rx="2"></rect>
        <filter x="-12.5%" y="-17.3%" width="125.0%" height="151.9%" filterUnits="objectBoundingBox" id="bubble-shadow">
            <feOffset dx="0" dy="2" in="SourceAlpha" result="shadowOffsetOuter1"></feOffset>
            <feGaussianBlur stdDeviation="3" in="shadowOffsetOuter1" result="shadowBlurOuter1"></feGaussianBlur>
            <feColorMatrix values="0 0 0 0 0   0 0 0 0 0   0 0 0 0 0  0 0 0 0.3 0" type="matrix" in="shadowBlurOuter1"></feColorMatrix>
        </filter>
    </defs>
    <g id="toggletip" stroke="none" stroke-width="1" fill="none" fill-rule="evenodd">
        <rect id="label" fill="#525252" x="88" y="122" width="70" height="8"></rect>
        <g id="information" transform="translate(168, 116) scale(0.5)" fill="#161616">
            <path d="M17 22L17 14 13 14 13 16 15 16 15 22 12 22 12 24 20 24 20 22 17 22zM16 8a1.5 1.5 0 101.5 1.5A1.5 1.5 0 0016 8z"></path>
            <path d="M16,30A14,14,0,1,1,30,16,14,14,0,0,1,16,30ZM16,4A12,12,0,1,0,28,16,12,12,0,0,0,16,4Z"></path>
        </g>
        <use xlink:href="#bubble-shape" fill="black" fill-opacity="1" filter="url(#bubble-shadow)"></use>
        <use xlink:href="#bubble-shape" fill="#3D3D3D"></use>
        <polygon id="caret" fill="#3D3D3D" points="171 106 179 106 175 112"></polygon>
        <rect id="text-1" fill="#BEBEBE" x="113" y="68" width="80" height="6"></rect>
        <rect id="text-2" fill="#BEBEBE" x="113" y="82" width="56" height="6"></rect>
    </g>
</svg>
