<?xml version="1.0" encoding="UTF-8"?>
<svg width="320px" height="180px" viewBox="0 0 320 180" version="1.1" xmlns="http://www.w3.org/2000/svg" xmlns:xlink="http://www.w3.org/1999/xlink">
    <title>tooltip-icon</title>
    <defs>
        <path d="M7.03125,8.90625 L7.03125,4.6875 L5.15625,4.6875 L5.15625,5.625 L6.09375,5.625 L6.09375,8.90625 L4.6875,8.90625 L4.6875,9.84375 L8.4375,9.84375 L8.4375,8.90625 L7.03125,8.90625 L7.03125,8.90625 Z M6.5625,2.34375 C6.17417479,2.34375 5.859375,2.65854979 5.859375,3.046875 C5.859375,3.43520021 6.17417479,3.75 6.5625,3.75 C6.95082521,3.75 7.265625,3.43520021 7.265625,3.046875 C7.265625,2.65854979 6.95082521,2.34375 6.5625,2.34375 L6.5625,2.34375 Z M6.5625,13.125 C2.93813133,13.125 0,10.1868687 0,6.5625 C0,2.93813133 2.93813133,0 6.5625,0 C10.1868687,0 13.125,2.93813133 13.125,6.5625 C13.1209442,10.1851874 10.1851874,13.1209442 6.5625,13.125 Z M6.5625,0.9375 C3.45589828,0.9375 0.9375,3.45589828 0.9375,6.5625 C0.9375,9.66910172 3.45589828,12.1875 6.5625,12.1875 C9.66910172,12.1875 12.1875,9.66910172 12.1875,6.5625 C12.1840384,3.45733327 9.66766673,0.940961641 6.5625,0.9375 Z" id="path-1"></path>
    </defs>
    <g id="tooltip-icon" stroke="none" stroke-width="1" fill="none" fill-rule="evenodd">
        <g id="Group-56-Copy" transform="translate(100.000000, 78.700000)">
            <path d="M80.3,-38.1 C81.1284271,-38.1 81.8,-37.4284271 81.8,-36.6 L81.8,54.4 C81.8,55.2284271 81.1284271,55.9 80.3,55.9 L75.161,55.9 L70.4045455,61.1 L65.647,55.9 L60.3,55.9 C59.4715729,55.9 58.8,55.2284271 58.8,54.4 L58.8,-36.6 C58.8,-37.4284271 59.4715729,-38.1 60.3,-38.1 L80.3,-38.1 Z" id="Rectangle-24" fill="#3D3D3D" transform="translate(70.300000, 11.500000) rotate(90.000000) translate(-70.300000, -11.500000) "></path>
            <g id="Group" transform="translate(0.000000, 4.300000)">
                <g id="information" transform="translate(0.937500, 0.937500)">
                    <mask id="mask-2" fill="white">
                        <use xlink:href="#path-1"></use>
                    </mask>
                    <use id="Mask" fill="#000000" fill-rule="nonzero" xlink:href="#path-1"></use>
                    <g id="Group" mask="url(#mask-2)">
                        <g transform="translate(-0.937500, -0.937500)" id="icon-color">
                            <rect id="Rectangle-3-Copy" fill="#161616" x="0" y="0" width="37.5" height="37.5"></rect>
                        </g>
                    </g>
                </g>
                <rect id="transparent-rectangle" x="0" y="0" width="15" height="15"></rect>
            </g>
            <rect id="Rectangle-Copy" fill="#BEBEBE" x="35" y="9.3" width="59" height="5"></rect>
        </g>
    </g>
</svg>