<?xml version="1.0" encoding="UTF-8"?>
<svg width="320px" height="180px" viewBox="0 0 320 180" version="1.1" xmlns="http://www.w3.org/2000/svg" xmlns:xlink="http://www.w3.org/1999/xlink">
    <title>truncate</title>
    <g id="truncate" stroke="none" stroke-width="1" fill="none" fill-rule="evenodd">
        <g id="Truncate…" transform="translate(131.264000, 86.624000)" fill="#161616" fill-rule="nonzero">
            <polygon id="Path" points="3.672 0.888 3.672 8.376 2.664 8.376 2.664 0.888 0 0.888 0 0 6.336 0 6.336 0.888"></polygon>
            <path d="M7.62,8.376 L7.62,2.184 L8.58,2.184 L8.58,3.324 L8.64,3.324 C8.752,3.028 8.952,2.764 9.24,2.532 C9.528,2.3 9.924,2.184 10.428,2.184 L10.8,2.184 L10.8,3.144 L10.236,3.144 C9.716,3.144 9.31,3.242 9.018,3.438 C8.726,3.634 8.58,3.88 8.58,4.176 L8.58,8.376 L7.62,8.376 Z" id="Path"></path>
            <path d="M15.84,7.368 L15.792,7.368 C15.728,7.512 15.65,7.654 15.558,7.794 C15.466,7.934 15.352,8.058 15.216,8.166 C15.08,8.274 14.916,8.36 14.724,8.424 C14.532,8.488 14.308,8.52 14.052,8.52 C13.412,8.52 12.904,8.314 12.528,7.902 C12.152,7.49 11.964,6.908 11.964,6.156 L11.964,2.184 L12.924,2.184 L12.924,5.988 C12.924,7.1 13.396,7.656 14.34,7.656 C14.532,7.656 14.718,7.632 14.898,7.584 C15.078,7.536 15.238,7.464 15.378,7.368 C15.518,7.272 15.63,7.15 15.714,7.002 C15.798,6.854 15.84,6.676 15.84,6.468 L15.84,2.184 L16.8,2.184 L16.8,8.376 L15.84,8.376 L15.84,7.368 Z" id="Path"></path>
            <path d="M18.84,8.376 L18.84,2.184 L19.8,2.184 L19.8,3.192 L19.848,3.192 C20,2.84 20.214,2.56 20.49,2.352 C20.766,2.144 21.136,2.04 21.6,2.04 C22.24,2.04 22.746,2.246 23.118,2.658 C23.49,3.07 23.676,3.652 23.676,4.404 L23.676,8.376 L22.716,8.376 L22.716,4.572 C22.716,3.46 22.248,2.904 21.312,2.904 C21.12,2.904 20.934,2.928 20.754,2.976 C20.574,3.024 20.412,3.096 20.268,3.192 C20.124,3.288 20.01,3.41 19.926,3.558 C19.842,3.706 19.8,3.88 19.8,4.08 L19.8,8.376 L18.84,8.376 Z" id="Path"></path>
            <path d="M27.96,8.52 C27.528,8.52 27.14,8.444 26.796,8.292 C26.452,8.14 26.162,7.924 25.926,7.644 C25.69,7.364 25.51,7.024 25.386,6.624 C25.262,6.224 25.2,5.776 25.2,5.28 C25.2,4.784 25.262,4.336 25.386,3.936 C25.51,3.536 25.69,3.196 25.926,2.916 C26.162,2.636 26.452,2.42 26.796,2.268 C27.14,2.116 27.528,2.04 27.96,2.04 C28.576,2.04 29.07,2.174 29.442,2.442 C29.814,2.71 30.092,3.06 30.276,3.492 L29.472,3.9 C29.36,3.58 29.176,3.332 28.92,3.156 C28.664,2.98 28.344,2.892 27.96,2.892 C27.672,2.892 27.42,2.938 27.204,3.03 C26.988,3.122 26.808,3.25 26.664,3.414 C26.52,3.578 26.412,3.774 26.34,4.002 C26.268,4.23 26.232,4.48 26.232,4.752 L26.232,5.808 C26.232,6.352 26.378,6.798 26.67,7.146 C26.962,7.494 27.392,7.668 27.96,7.668 C28.736,7.668 29.296,7.308 29.64,6.588 L30.336,7.056 C30.136,7.504 29.838,7.86 29.442,8.124 C29.046,8.388 28.552,8.52 27.96,8.52 Z" id="Path"></path>
            <path d="M36.192,8.376 C35.832,8.376 35.574,8.28 35.418,8.088 C35.262,7.896 35.164,7.656 35.124,7.368 L35.064,7.368 C34.928,7.752 34.704,8.04 34.392,8.232 C34.08,8.424 33.708,8.52 33.276,8.52 C32.62,8.52 32.11,8.352 31.746,8.016 C31.382,7.68 31.2,7.224 31.2,6.648 C31.2,6.064 31.414,5.616 31.842,5.304 C32.27,4.992 32.936,4.836 33.84,4.836 L35.064,4.836 L35.064,4.224 C35.064,3.784 34.944,3.448 34.704,3.216 C34.464,2.984 34.096,2.868 33.6,2.868 C33.224,2.868 32.91,2.952 32.658,3.12 C32.406,3.288 32.196,3.512 32.028,3.792 L31.452,3.252 C31.62,2.916 31.888,2.63 32.256,2.394 C32.624,2.158 33.088,2.04 33.648,2.04 C34.4,2.04 34.984,2.224 35.4,2.592 C35.816,2.96 36.024,3.472 36.024,4.128 L36.024,7.536 L36.732,7.536 L36.732,8.376 L36.192,8.376 Z M33.432,7.704 C33.672,7.704 33.892,7.676 34.092,7.62 C34.292,7.564 34.464,7.484 34.608,7.38 C34.752,7.276 34.864,7.156 34.944,7.02 C35.024,6.884 35.064,6.736 35.064,6.576 L35.064,5.556 L33.792,5.556 C33.24,5.556 32.838,5.636 32.586,5.796 C32.334,5.956 32.208,6.188 32.208,6.492 L32.208,6.744 C32.208,7.048 32.318,7.284 32.538,7.452 C32.758,7.62 33.056,7.704 33.432,7.704 Z" id="Shape"></path>
            <path d="M39.468,8.376 C39.132,8.376 38.878,8.282 38.706,8.094 C38.534,7.906 38.448,7.66 38.448,7.356 L38.448,3.024 L37.428,3.024 L37.428,2.184 L38.004,2.184 C38.212,2.184 38.354,2.142 38.43,2.058 C38.506,1.974 38.544,1.828 38.544,1.62 L38.544,0.468 L39.408,0.468 L39.408,2.184 L40.764,2.184 L40.764,3.024 L39.408,3.024 L39.408,7.536 L40.668,7.536 L40.668,8.376 L39.468,8.376 Z" id="Path"></path>
            <path d="M44.64,8.52 C44.216,8.52 43.834,8.444 43.494,8.292 C43.154,8.14 42.862,7.922 42.618,7.638 C42.374,7.354 42.186,7.014 42.054,6.618 C41.922,6.222 41.856,5.776 41.856,5.28 C41.856,4.792 41.922,4.348 42.054,3.948 C42.186,3.548 42.374,3.206 42.618,2.922 C42.862,2.638 43.154,2.42 43.494,2.268 C43.834,2.116 44.216,2.04 44.64,2.04 C45.056,2.04 45.428,2.116 45.756,2.268 C46.084,2.42 46.364,2.63 46.596,2.898 C46.828,3.166 47.006,3.484 47.13,3.852 C47.254,4.22 47.316,4.624 47.316,5.064 L47.316,5.52 L42.864,5.52 L42.864,5.808 C42.864,6.072 42.906,6.318 42.99,6.546 C43.074,6.774 43.194,6.972 43.35,7.14 C43.506,7.308 43.698,7.44 43.926,7.536 C44.154,7.632 44.412,7.68 44.7,7.68 C45.092,7.68 45.434,7.588 45.726,7.404 C46.018,7.22 46.244,6.956 46.404,6.612 L47.088,7.104 C46.888,7.528 46.576,7.87 46.152,8.13 C45.728,8.39 45.224,8.52 44.64,8.52 Z M44.64,2.844 C44.376,2.844 44.136,2.89 43.92,2.982 C43.704,3.074 43.518,3.204 43.362,3.372 C43.206,3.54 43.084,3.738 42.996,3.966 C42.908,4.194 42.864,4.444 42.864,4.716 L42.864,4.8 L46.284,4.8 L46.284,4.668 C46.284,4.116 46.134,3.674 45.834,3.342 C45.534,3.01 45.136,2.844 44.64,2.844 Z" id="Shape"></path>
            <path d="M49.512,8.52 C49.256,8.52 49.07,8.456 48.954,8.328 C48.838,8.2 48.78,8.032 48.78,7.824 L48.78,7.668 C48.78,7.46 48.838,7.292 48.954,7.164 C49.07,7.036 49.256,6.972 49.512,6.972 C49.768,6.972 49.954,7.036 50.07,7.164 C50.186,7.292 50.244,7.46 50.244,7.668 L50.244,7.824 C50.244,8.032 50.186,8.2 50.07,8.328 C49.954,8.456 49.768,8.52 49.512,8.52 Z M52.692,8.52 C52.436,8.52 52.25,8.456 52.134,8.328 C52.018,8.2 51.96,8.032 51.96,7.824 L51.96,7.668 C51.96,7.46 52.018,7.292 52.134,7.164 C52.25,7.036 52.436,6.972 52.692,6.972 C52.948,6.972 53.134,7.036 53.25,7.164 C53.366,7.292 53.424,7.46 53.424,7.668 L53.424,7.824 C53.424,8.032 53.366,8.2 53.25,8.328 C53.134,8.456 52.948,8.52 52.692,8.52 Z M55.884,8.52 C55.628,8.52 55.442,8.456 55.326,8.328 C55.21,8.2 55.152,8.032 55.152,7.824 L55.152,7.668 C55.152,7.46 55.21,7.292 55.326,7.164 C55.442,7.036 55.628,6.972 55.884,6.972 C56.14,6.972 56.326,7.036 56.442,7.164 C56.558,7.292 56.616,7.46 56.616,7.668 L56.616,7.824 C56.616,8.032 56.558,8.2 56.442,8.328 C56.326,8.456 56.14,8.52 55.884,8.52 Z" id="Shape"></path>
        </g>
    </g>
</svg>