<?xml version="1.0" encoding="UTF-8"?>
<svg width="320px" height="180px" viewBox="0 0 320 180" version="1.1" xmlns="http://www.w3.org/2000/svg">
    <title>ui-shell</title>
    <g id="ui-shell" stroke="none" stroke-width="1" fill="none" fill-rule="evenodd">
        <rect id="header" fill="var(--cds-icon-primary, #161616)" x="40" y="36" width="240" height="24"></rect>
        <rect id="burger-1" fill="var(--cds-field-01, #f4f4f4)" x="50" y="44" width="10" height="1.25"></rect>
        <rect id="burger-2" fill="var(--cds-field-01, #f4f4f4)" x="50" y="47.5" width="10" height="1.25"></rect>
        <rect id="burger-3" fill="var(--cds-field-01, #f4f4f4)" x="50" y="51" width="10" height="1.25"></rect>
        <rect id="brand" fill="var(--cds-text-placeholder, #a8a8a8)" x="70" y="46" width="28" height="4"></rect>
        <rect id="header-nav-1" fill="var(--cds-border-strong, #8d8d8d)" x="180" y="46" width="24" height="4"></rect>
        <rect id="header-nav-2" fill="var(--cds-border-strong, #8d8d8d)" x="212" y="46" width="28" height="4"></rect>
        <rect id="header-nav-3" fill="var(--cds-border-strong, #8d8d8d)" x="248" y="46" width="20" height="4"></rect>
        <rect id="side-nav" fill="var(--cds-field-01, #f4f4f4)" x="40" y="60" width="72" height="84"></rect>
        <rect id="side-selected-bar" fill="var(--cds-interactive-01, #0f62fe)" x="40" y="72" width="2" height="14"></rect>
        <rect id="side-selected" fill="var(--cds-text-secondary, #525252)" x="52" y="76" width="44" height="6"></rect>
        <rect id="side-2" fill="var(--cds-text-placeholder, #a8a8a8)" x="52" y="98" width="40" height="6"></rect>
        <rect id="side-3" fill="var(--cds-text-placeholder, #a8a8a8)" x="52" y="120" width="36" height="6"></rect>
        <rect id="right-panel" fill="var(--cds-ui-02, #ffffff)" x="112" y="60" width="168" height="84"></rect>
        <rect id="right-panel-left" fill="var(--cds-border-subtle, #e0e0e0)" x="112" y="60" width="1" height="84"></rect>
        <rect id="right-panel-right" fill="var(--cds-border-subtle, #e0e0e0)" x="279" y="60" width="1" height="84"></rect>
        <rect id="right-panel-bottom" fill="var(--cds-border-subtle, #e0e0e0)" x="112" y="143" width="168" height="1"></rect>
    </g>
</svg>
