<?xml version="1.0" encoding="UTF-8"?>
<svg width="320px" height="180px" viewBox="0 0 320 180" version="1.1" xmlns="http://www.w3.org/2000/svg">
    <title>user-avatar</title>
    <g id="user-avatar" stroke="none" stroke-width="1" fill="none" fill-rule="evenodd">
        <circle id="bg" fill="#6F6F6F" cx="160" cy="90" r="24"></circle>
        <g id="user" transform="translate(148, 78) scale(0.75)" fill="var(--cds-ui-02, #ffffff)">
            <path d="M16,4a5,5,0,1,1-5,5,5,5,0,0,1,5-5m0-2a7,7,0,1,0,7,7A7,7,0,0,0,16,2Z"></path>
            <path d="M26,30H24V25a5,5,0,0,0-5-5H13a5,5,0,0,0-5,5v5H6V25a7,7,0,0,1,7-7h6a7,7,0,0,1,7,7Z"></path>
        </g>
    </g>
</svg>
