<?xml version="1.0" encoding="UTF-8"?>
<svg width="320px" height="180px" viewBox="0 0 320 180" version="1.1" xmlns="http://www.w3.org/2000/svg" xmlns:xlink="http://www.w3.org/1999/xlink">
    <title>button-group</title>
    <g id="button-group" stroke="none" stroke-width="1" fill="none" fill-rule="evenodd">
        <rect id="Rectangle-Copy-2" stroke="#0F62FE" x="56" y="74" width="100" height="32"></rect>
        <rect id="Rectangle-Copy-3" fill="#0E62FE" x="164" y="74" width="100" height="32"></rect>
        <g id="Secondary-Copy" transform="translate(68.504000, 86.120000)" fill="#0F62FE" fill-rule="nonzero">
            <path d="M2.964,9.024 C2.284,9.024 1.704,8.894 1.224,8.634 C0.744,8.374 0.336,8.016 0,7.56 L0.744,6.936 C1.04,7.328 1.368,7.626 1.728,7.83 C2.088,8.034 2.512,8.136 3,8.136 C3.6,8.136 4.058,7.992 4.374,7.704 C4.69,7.416 4.848,7.032 4.848,6.552 C4.848,6.152 4.728,5.844 4.488,5.628 C4.248,5.412 3.852,5.24 3.3,5.112 L2.616,4.956 C1.848,4.78 1.262,4.514 0.858,4.158 C0.454,3.802 0.252,3.3 0.252,2.652 C0.252,2.284 0.32,1.956 0.456,1.668 C0.592,1.38 0.782,1.14 1.026,0.948 C1.27,0.756 1.562,0.61 1.902,0.51 C2.242,0.41 2.616,0.36 3.024,0.36 C3.656,0.36 4.198,0.476 4.65,0.708 C5.102,0.94 5.484,1.28 5.796,1.728 L5.04,2.28 C4.808,1.96 4.528,1.708 4.2,1.524 C3.872,1.34 3.464,1.248 2.976,1.248 C2.44,1.248 2.018,1.362 1.71,1.59 C1.402,1.818 1.248,2.16 1.248,2.616 C1.248,3.016 1.378,3.318 1.638,3.522 C1.898,3.726 2.292,3.888 2.82,4.008 L3.504,4.164 C4.328,4.348 4.924,4.628 5.292,5.004 C5.66,5.38 5.844,5.88 5.844,6.504 C5.844,6.888 5.778,7.236 5.646,7.548 C5.514,7.86 5.324,8.124 5.076,8.34 C4.828,8.556 4.526,8.724 4.17,8.844 C3.814,8.964 3.412,9.024 2.964,9.024 Z" id="Path"></path>
            <path d="M9.816,9.024 C9.392,9.024 9.01,8.948 8.67,8.796 C8.33,8.644 8.038,8.426 7.794,8.142 C7.55,7.858 7.362,7.518 7.23,7.122 C7.098,6.726 7.032,6.28 7.032,5.784 C7.032,5.296 7.098,4.852 7.23,4.452 C7.362,4.052 7.55,3.71 7.794,3.426 C8.038,3.142 8.33,2.924 8.67,2.772 C9.01,2.62 9.392,2.544 9.816,2.544 C10.232,2.544 10.604,2.62 10.932,2.772 C11.26,2.924 11.54,3.134 11.772,3.402 C12.004,3.67 12.182,3.988 12.306,4.356 C12.43,4.724 12.492,5.128 12.492,5.568 L12.492,6.024 L8.04,6.024 L8.04,6.312 C8.04,6.576 8.082,6.822 8.166,7.05 C8.25,7.278 8.37,7.476 8.526,7.644 C8.682,7.812 8.874,7.944 9.102,8.04 C9.33,8.136 9.588,8.184 9.876,8.184 C10.268,8.184 10.61,8.092 10.902,7.908 C11.194,7.724 11.42,7.46 11.58,7.116 L12.264,7.608 C12.064,8.032 11.752,8.374 11.328,8.634 C10.904,8.894 10.4,9.024 9.816,9.024 Z M9.816,3.348 C9.552,3.348 9.312,3.394 9.096,3.486 C8.88,3.578 8.694,3.708 8.538,3.876 C8.382,4.044 8.26,4.242 8.172,4.47 C8.084,4.698 8.04,4.948 8.04,5.22 L8.04,5.304 L11.46,5.304 L11.46,5.172 C11.46,4.62 11.31,4.178 11.01,3.846 C10.71,3.514 10.312,3.348 9.816,3.348 Z" id="Shape"></path>
            <path d="M16.38,9.024 C15.948,9.024 15.56,8.948 15.216,8.796 C14.872,8.644 14.582,8.428 14.346,8.148 C14.11,7.868 13.93,7.528 13.806,7.128 C13.682,6.728 13.62,6.28 13.62,5.784 C13.62,5.288 13.682,4.84 13.806,4.44 C13.93,4.04 14.11,3.7 14.346,3.42 C14.582,3.14 14.872,2.924 15.216,2.772 C15.56,2.62 15.948,2.544 16.38,2.544 C16.996,2.544 17.49,2.678 17.862,2.946 C18.234,3.214 18.512,3.564 18.696,3.996 L17.892,4.404 C17.78,4.084 17.596,3.836 17.34,3.66 C17.084,3.484 16.764,3.396 16.38,3.396 C16.092,3.396 15.84,3.442 15.624,3.534 C15.408,3.626 15.228,3.754 15.084,3.918 C14.94,4.082 14.832,4.278 14.76,4.506 C14.688,4.734 14.652,4.984 14.652,5.256 L14.652,6.312 C14.652,6.856 14.798,7.302 15.09,7.65 C15.382,7.998 15.812,8.172 16.38,8.172 C17.156,8.172 17.716,7.812 18.06,7.092 L18.756,7.56 C18.556,8.008 18.258,8.364 17.862,8.628 C17.466,8.892 16.972,9.024 16.38,9.024 Z" id="Path"></path>
            <path d="M22.452,9.024 C22.036,9.024 21.656,8.948 21.312,8.796 C20.968,8.644 20.674,8.426 20.43,8.142 C20.186,7.858 19.996,7.518 19.86,7.122 C19.724,6.726 19.656,6.28 19.656,5.784 C19.656,5.296 19.724,4.852 19.86,4.452 C19.996,4.052 20.186,3.71 20.43,3.426 C20.674,3.142 20.968,2.924 21.312,2.772 C21.656,2.62 22.036,2.544 22.452,2.544 C22.868,2.544 23.246,2.62 23.586,2.772 C23.926,2.924 24.22,3.142 24.468,3.426 C24.716,3.71 24.908,4.052 25.044,4.452 C25.18,4.852 25.248,5.296 25.248,5.784 C25.248,6.28 25.18,6.726 25.044,7.122 C24.908,7.518 24.716,7.858 24.468,8.142 C24.22,8.426 23.926,8.644 23.586,8.796 C23.246,8.948 22.868,9.024 22.452,9.024 Z M22.452,8.172 C22.972,8.172 23.396,8.012 23.724,7.692 C24.052,7.372 24.216,6.884 24.216,6.228 L24.216,5.34 C24.216,4.684 24.052,4.196 23.724,3.876 C23.396,3.556 22.972,3.396 22.452,3.396 C21.932,3.396 21.508,3.556 21.18,3.876 C20.852,4.196 20.688,4.684 20.688,5.34 L20.688,6.228 C20.688,6.884 20.852,7.372 21.18,7.692 C21.508,8.012 21.932,8.172 22.452,8.172 Z" id="Shape"></path>
            <path d="M26.832,8.88 L26.832,2.688 L27.792,2.688 L27.792,3.696 L27.84,3.696 C27.992,3.344 28.206,3.064 28.482,2.856 C28.758,2.648 29.128,2.544 29.592,2.544 C30.232,2.544 30.738,2.75 31.11,3.162 C31.482,3.574 31.668,4.156 31.668,4.908 L31.668,8.88 L30.708,8.88 L30.708,5.076 C30.708,3.964 30.24,3.408 29.304,3.408 C29.112,3.408 28.926,3.432 28.746,3.48 C28.566,3.528 28.404,3.6 28.26,3.696 C28.116,3.792 28.002,3.914 27.918,4.062 C27.834,4.21 27.792,4.384 27.792,4.584 L27.792,8.88 L26.832,8.88 Z" id="Path"></path>
            <path d="M37.608,7.872 L37.56,7.872 C37.184,8.64 36.58,9.024 35.748,9.024 C35.364,9.024 35.016,8.948 34.704,8.796 C34.392,8.644 34.126,8.428 33.906,8.148 C33.686,7.868 33.518,7.528 33.402,7.128 C33.286,6.728 33.228,6.28 33.228,5.784 C33.228,5.288 33.286,4.84 33.402,4.44 C33.518,4.04 33.686,3.7 33.906,3.42 C34.126,3.14 34.392,2.924 34.704,2.772 C35.016,2.62 35.364,2.544 35.748,2.544 C36.18,2.544 36.55,2.638 36.858,2.826 C37.166,3.014 37.4,3.304 37.56,3.696 L37.608,3.696 L37.608,0 L38.568,0 L38.568,8.88 L37.608,8.88 L37.608,7.872 Z M36.012,8.16 C36.228,8.16 36.434,8.132 36.63,8.076 C36.826,8.02 36.996,7.938 37.14,7.83 C37.284,7.722 37.398,7.59 37.482,7.434 C37.566,7.278 37.608,7.1 37.608,6.9 L37.608,4.596 C37.608,4.428 37.566,4.27 37.482,4.122 C37.398,3.974 37.284,3.848 37.14,3.744 C36.996,3.64 36.826,3.558 36.63,3.498 C36.434,3.438 36.228,3.408 36.012,3.408 C35.468,3.408 35.04,3.578 34.728,3.918 C34.416,4.258 34.26,4.704 34.26,5.256 L34.26,6.312 C34.26,6.864 34.416,7.31 34.728,7.65 C35.04,7.99 35.468,8.16 36.012,8.16 Z" id="Shape"></path>
            <path d="M45.108,8.88 C44.748,8.88 44.49,8.784 44.334,8.592 C44.178,8.4 44.08,8.16 44.04,7.872 L43.98,7.872 C43.844,8.256 43.62,8.544 43.308,8.736 C42.996,8.928 42.624,9.024 42.192,9.024 C41.536,9.024 41.026,8.856 40.662,8.52 C40.298,8.184 40.116,7.728 40.116,7.152 C40.116,6.568 40.33,6.12 40.758,5.808 C41.186,5.496 41.852,5.34 42.756,5.34 L43.98,5.34 L43.98,4.728 C43.98,4.288 43.86,3.952 43.62,3.72 C43.38,3.488 43.012,3.372 42.516,3.372 C42.14,3.372 41.826,3.456 41.574,3.624 C41.322,3.792 41.112,4.016 40.944,4.296 L40.368,3.756 C40.536,3.42 40.804,3.134 41.172,2.898 C41.54,2.662 42.004,2.544 42.564,2.544 C43.316,2.544 43.9,2.728 44.316,3.096 C44.732,3.464 44.94,3.976 44.94,4.632 L44.94,8.04 L45.648,8.04 L45.648,8.88 L45.108,8.88 Z M42.348,8.208 C42.588,8.208 42.808,8.18 43.008,8.124 C43.208,8.068 43.38,7.988 43.524,7.884 C43.668,7.78 43.78,7.66 43.86,7.524 C43.94,7.388 43.98,7.24 43.98,7.08 L43.98,6.06 L42.708,6.06 C42.156,6.06 41.754,6.14 41.502,6.3 C41.25,6.46 41.124,6.692 41.124,6.996 L41.124,7.248 C41.124,7.552 41.234,7.788 41.454,7.956 C41.674,8.124 41.972,8.208 42.348,8.208 Z" id="Shape"></path>
            <path d="M47.016,8.88 L47.016,2.688 L47.976,2.688 L47.976,3.828 L48.036,3.828 C48.148,3.532 48.348,3.268 48.636,3.036 C48.924,2.804 49.32,2.688 49.824,2.688 L50.196,2.688 L50.196,3.648 L49.632,3.648 C49.112,3.648 48.706,3.746 48.414,3.942 C48.122,4.138 47.976,4.384 47.976,4.68 L47.976,8.88 L47.016,8.88 Z" id="Path"></path>
            <path d="M55.236,2.688 L56.184,2.688 L53.412,10.32 C53.34,10.504 53.268,10.658 53.196,10.782 C53.124,10.906 53.036,11.004 52.932,11.076 C52.828,11.148 52.698,11.2 52.542,11.232 C52.386,11.264 52.196,11.28 51.972,11.28 L51.48,11.28 L51.48,10.44 L52.452,10.44 L52.92,9.12 L50.604,2.688 L51.564,2.688 L53.052,6.9 L53.34,7.908 L53.4,7.908 L53.736,6.9 L55.236,2.688 Z" id="Path"></path>
        </g>
        <g id="Primary-Copy" transform="translate(177.116000, 86.120000)" fill="#FFFFFF" fill-rule="nonzero">
            <path d="M0,8.88 L0,0.504 L3.336,0.504 C4.088,0.504 4.666,0.718 5.07,1.146 C5.474,1.574 5.676,2.16 5.676,2.904 C5.676,3.648 5.474,4.234 5.07,4.662 C4.666,5.09 4.088,5.304 3.336,5.304 L1.008,5.304 L1.008,8.88 L0,8.88 Z M1.008,4.416 L3.336,4.416 C3.736,4.416 4.046,4.312 4.266,4.104 C4.486,3.896 4.596,3.6 4.596,3.216 L4.596,2.592 C4.596,2.208 4.486,1.912 4.266,1.704 C4.046,1.496 3.736,1.392 3.336,1.392 L1.008,1.392 L1.008,4.416 Z" id="Shape"></path>
            <path d="M7.176,8.88 L7.176,2.688 L8.136,2.688 L8.136,3.828 L8.196,3.828 C8.308,3.532 8.508,3.268 8.796,3.036 C9.084,2.804 9.48,2.688 9.984,2.688 L10.356,2.688 L10.356,3.648 L9.792,3.648 C9.272,3.648 8.866,3.746 8.574,3.942 C8.282,4.138 8.136,4.384 8.136,4.68 L8.136,8.88 L7.176,8.88 Z" id="Path"></path>
            <path d="M12.06,1.236 C11.852,1.236 11.702,1.186 11.61,1.086 C11.518,0.986 11.472,0.856 11.472,0.696 L11.472,0.54 C11.472,0.38 11.518,0.25 11.61,0.15 C11.702,0.05 11.852,0 12.06,0 C12.268,0 12.418,0.05 12.51,0.15 C12.602,0.25 12.648,0.38 12.648,0.54 L12.648,0.696 C12.648,0.856 12.602,0.986 12.51,1.086 C12.418,1.186 12.268,1.236 12.06,1.236 Z M11.58,2.688 L12.54,2.688 L12.54,8.88 L11.58,8.88 L11.58,2.688 Z" id="Shape"></path>
            <path d="M14.58,8.88 L14.58,2.688 L15.54,2.688 L15.54,3.696 L15.588,3.696 C15.66,3.536 15.742,3.386 15.834,3.246 C15.926,3.106 16.038,2.984 16.17,2.88 C16.302,2.776 16.456,2.694 16.632,2.634 C16.808,2.574 17.016,2.544 17.256,2.544 C17.664,2.544 18.04,2.642 18.384,2.838 C18.728,3.034 18.984,3.356 19.152,3.804 L19.176,3.804 C19.288,3.468 19.498,3.174 19.806,2.922 C20.114,2.67 20.532,2.544 21.06,2.544 C21.692,2.544 22.186,2.75 22.542,3.162 C22.898,3.574 23.076,4.156 23.076,4.908 L23.076,8.88 L22.116,8.88 L22.116,5.076 C22.116,4.524 22.008,4.108 21.792,3.828 C21.576,3.548 21.232,3.408 20.76,3.408 C20.568,3.408 20.386,3.432 20.214,3.48 C20.042,3.528 19.888,3.6 19.752,3.696 C19.616,3.792 19.508,3.914 19.428,4.062 C19.348,4.21 19.308,4.384 19.308,4.584 L19.308,8.88 L18.348,8.88 L18.348,5.076 C18.348,4.524 18.24,4.108 18.024,3.828 C17.808,3.548 17.472,3.408 17.016,3.408 C16.824,3.408 16.64,3.432 16.464,3.48 C16.288,3.528 16.132,3.6 15.996,3.696 C15.86,3.792 15.75,3.914 15.666,4.062 C15.582,4.21 15.54,4.384 15.54,4.584 L15.54,8.88 L14.58,8.88 Z" id="Path"></path>
            <path d="M29.556,8.88 C29.196,8.88 28.938,8.784 28.782,8.592 C28.626,8.4 28.528,8.16 28.488,7.872 L28.428,7.872 C28.292,8.256 28.068,8.544 27.756,8.736 C27.444,8.928 27.072,9.024 26.64,9.024 C25.984,9.024 25.474,8.856 25.11,8.52 C24.746,8.184 24.564,7.728 24.564,7.152 C24.564,6.568 24.778,6.12 25.206,5.808 C25.634,5.496 26.3,5.34 27.204,5.34 L28.428,5.34 L28.428,4.728 C28.428,4.288 28.308,3.952 28.068,3.72 C27.828,3.488 27.46,3.372 26.964,3.372 C26.588,3.372 26.274,3.456 26.022,3.624 C25.77,3.792 25.56,4.016 25.392,4.296 L24.816,3.756 C24.984,3.42 25.252,3.134 25.62,2.898 C25.988,2.662 26.452,2.544 27.012,2.544 C27.764,2.544 28.348,2.728 28.764,3.096 C29.18,3.464 29.388,3.976 29.388,4.632 L29.388,8.04 L30.096,8.04 L30.096,8.88 L29.556,8.88 Z M26.796,8.208 C27.036,8.208 27.256,8.18 27.456,8.124 C27.656,8.068 27.828,7.988 27.972,7.884 C28.116,7.78 28.228,7.66 28.308,7.524 C28.388,7.388 28.428,7.24 28.428,7.08 L28.428,6.06 L27.156,6.06 C26.604,6.06 26.202,6.14 25.95,6.3 C25.698,6.46 25.572,6.692 25.572,6.996 L25.572,7.248 C25.572,7.552 25.682,7.788 25.902,7.956 C26.122,8.124 26.42,8.208 26.796,8.208 Z" id="Shape"></path>
            <path d="M31.464,8.88 L31.464,2.688 L32.424,2.688 L32.424,3.828 L32.484,3.828 C32.596,3.532 32.796,3.268 33.084,3.036 C33.372,2.804 33.768,2.688 34.272,2.688 L34.644,2.688 L34.644,3.648 L34.08,3.648 C33.56,3.648 33.154,3.746 32.862,3.942 C32.57,4.138 32.424,4.384 32.424,4.68 L32.424,8.88 L31.464,8.88 Z" id="Path"></path>
            <path d="M39.684,2.688 L40.632,2.688 L37.86,10.32 C37.788,10.504 37.716,10.658 37.644,10.782 C37.572,10.906 37.484,11.004 37.38,11.076 C37.276,11.148 37.146,11.2 36.99,11.232 C36.834,11.264 36.644,11.28 36.42,11.28 L35.928,11.28 L35.928,10.44 L36.9,10.44 L37.368,9.12 L35.052,2.688 L36.012,2.688 L37.5,6.9 L37.788,7.908 L37.848,7.908 L38.184,6.9 L39.684,2.688 Z" id="Path"></path>
        </g>
    </g>
</svg>